<?xml version="1.0" encoding="utf-8"?>
<!-- Generator: Adobe Illustrator 16.0.0, SVG Export Plug-In . SVG Version: 6.00 Build 0)  -->
<!DOCTYPE svg PUBLIC "-//W3C//DTD SVG 1.1//EN" "http://www.w3.org/Graphics/SVG/1.1/DTD/svg11.dtd">
<svg version="1.1" id="Layer_1" xmlns="http://www.w3.org/2000/svg" xmlns:xlink="http://www.w3.org/1999/xlink" x="0px" y="0px"
	 width="249.961px" height="100px" viewBox="0 0 249.961 100" enable-background="new 0 0 249.961 100" xml:space="preserve">
<g display="none">
	<rect display="inline" fill="#5C3D98" width="50" height="50"/>
	<rect x="50" display="inline" fill="#5C3D98" width="50" height="50"/>
	<rect x="100" display="inline" fill="#5C3D98" width="50" height="50"/>
	<rect y="50" display="inline" fill="#76C043" width="50" height="50"/>
	<rect x="50" y="50" display="inline" fill="#76C043" width="50" height="50"/>
	<rect x="100" y="50" display="inline" fill="#76C043" width="50" height="50"/>
	<rect x="199.961" display="inline" fill="#5C3D98" width="50" height="50"/>
	<rect x="199.961" y="50" display="inline" fill="#76C043" width="50" height="50"/>
	<rect x="150" display="inline" fill="#5C3D98" width="50" height="50"/>
	<rect x="150" y="50" display="inline" fill="#76C043" width="50" height="50"/>
</g>
<g>
	<g>
		<g>
			<path fill="#EF4434" d="M22.176,35.036c-1.698,0-3.079,1.381-3.079,3.079c0,1.697,1.381,3.078,3.079,3.078
				c1.697,0,3.078-1.382,3.078-3.078C25.253,36.417,23.873,35.036,22.176,35.036z M22.176,39.474c-0.75,0-1.36-0.609-1.36-1.359
				c0-0.749,0.61-1.359,1.36-1.359c0.75,0,1.359,0.61,1.359,1.359C23.535,38.864,22.925,39.474,22.176,39.474z"/>
		</g>
	</g>
	<g>
		<g>
			<path fill="#EF4434" d="M32.973,35.036c-1.697,0-3.078,1.381-3.078,3.079c0,1.697,1.381,3.078,3.078,3.078
				s3.078-1.382,3.078-3.078C36.051,36.417,34.67,35.036,32.973,35.036z M32.973,39.474c-0.75,0-1.359-0.609-1.359-1.359
				c0-0.749,0.61-1.359,1.359-1.359s1.359,0.61,1.359,1.359C34.332,38.864,33.722,39.474,32.973,39.474z"/>
		</g>
	</g>
	<g>
		<g>
			<path fill="#EF4434" d="M33.73,18.83H21.416c-0.475,0-0.859,0.385-0.859,0.859s0.385,0.859,0.859,0.859H33.73
				c0.475,0,0.859-0.385,0.859-0.859S34.205,18.83,33.73,18.83z"/>
		</g>
	</g>
	<g>
		<g>
			<path fill="#EF4434" d="M33.06,23.293H22.086c-0.475,0-0.859,0.385-0.859,0.859s0.385,0.859,0.859,0.859H33.06
				c0.475,0,0.859-0.385,0.859-0.859S33.535,23.293,33.06,23.293z"/>
		</g>
	</g>
	<g>
		<g>
			<path fill="#EF4434" d="M42.113,15.002c-0.327-0.402-0.813-0.633-1.332-0.633H14.013l-0.541-2.625
				c-0.113-0.547-0.486-1.007-0.999-1.229L8.702,8.877C8.266,8.688,7.76,8.888,7.571,9.323c-0.189,0.436,0.011,0.942,0.446,1.131
				l3.772,1.637l4.158,20.185c0.164,0.795,0.872,1.371,1.683,1.371h20.587c0.475,0,0.859-0.385,0.859-0.859
				s-0.385-0.859-0.859-0.859H17.63l-0.506-2.455h21.252c0.812,0,1.52-0.576,1.683-1.371l2.404-11.668
				C42.569,15.926,42.441,15.403,42.113,15.002z M38.377,27.755H16.771l-2.403-11.668h26.414L38.377,27.755z"/>
		</g>
	</g>
</g>
<g>
	<g>
		<g>
			<path fill="#FFFFFF" d="M22.176,85.036c-1.698,0-3.079,1.381-3.079,3.079c0,1.697,1.381,3.078,3.079,3.078
				c1.697,0,3.078-1.382,3.078-3.078C25.253,86.417,23.873,85.036,22.176,85.036z M22.176,89.474c-0.75,0-1.36-0.609-1.36-1.359
				c0-0.749,0.61-1.359,1.36-1.359c0.75,0,1.359,0.61,1.359,1.359C23.535,88.864,22.925,89.474,22.176,89.474z"/>
		</g>
	</g>
	<g>
		<g>
			<path fill="#FFFFFF" d="M32.973,85.036c-1.697,0-3.078,1.381-3.078,3.079c0,1.697,1.381,3.078,3.078,3.078
				s3.078-1.382,3.078-3.078C36.051,86.417,34.67,85.036,32.973,85.036z M32.973,89.474c-0.75,0-1.359-0.609-1.359-1.359
				c0-0.749,0.61-1.359,1.359-1.359s1.359,0.61,1.359,1.359C34.332,88.864,33.722,89.474,32.973,89.474z"/>
		</g>
	</g>
	<g>
		<g>
			<path fill="#FFFFFF" d="M33.73,68.83H21.416c-0.475,0-0.859,0.385-0.859,0.859s0.385,0.859,0.859,0.859H33.73
				c0.475,0,0.859-0.385,0.859-0.859S34.205,68.83,33.73,68.83z"/>
		</g>
	</g>
	<g>
		<g>
			<path fill="#FFFFFF" d="M33.06,73.293H22.086c-0.475,0-0.859,0.385-0.859,0.859s0.385,0.859,0.859,0.859H33.06
				c0.475,0,0.859-0.385,0.859-0.859S33.535,73.293,33.06,73.293z"/>
		</g>
	</g>
	<g>
		<g>
			<path fill="#FFFFFF" d="M42.113,65.002c-0.327-0.402-0.813-0.633-1.332-0.633H14.013l-0.541-2.625
				c-0.113-0.547-0.486-1.007-0.999-1.229l-3.771-1.638c-0.436-0.188-0.942,0.012-1.13,0.446c-0.189,0.436,0.011,0.942,0.446,1.131
				l3.772,1.637l4.158,20.185c0.164,0.795,0.872,1.371,1.683,1.371h20.587c0.475,0,0.859-0.385,0.859-0.859
				s-0.385-0.859-0.859-0.859H17.63l-0.506-2.455h21.252c0.812,0,1.52-0.576,1.683-1.371l2.404-11.668
				C42.569,65.926,42.441,65.403,42.113,65.002z M38.377,77.755H16.771l-2.403-11.668h26.414L38.377,77.755z"/>
		</g>
	</g>
</g>
<g id="XMLID_1341_">
	<g id="XMLID_213_">
		<path id="XMLID_214_" fill="#EF4434" d="M90.188,26.056c-0.398,0-0.773,0.101-1.101,0.279c-0.335-0.864-1.175-1.479-2.156-1.479
			c-0.635,0-1.21,0.257-1.629,0.673c-0.418-0.416-0.994-0.673-1.628-0.673c-0.336,0-0.656,0.073-0.945,0.202v-1.975
			c0.021,0.002,0.042,0.003,0.064,0.003h5.674c1.168,0,2.119-0.951,2.119-2.119v-2.939c0-0.378-0.306-0.684-0.684-0.684
			s-0.684,0.306-0.684,0.684v2.939c0,0.414-0.337,0.752-0.752,0.752h-5.674c-0.021,0-0.043,0.001-0.064,0.003v-1.464
			c0-1.274-1.037-2.312-2.312-2.312s-2.312,1.037-2.312,2.312v1.461h-0.986c-0.415,0-0.752-0.338-0.752-0.752V9.619
			c0-0.415,0.337-0.752,0.752-0.752h11.348c0.415,0,0.752,0.337,0.752,0.752v2.939c0,0.378,0.306,0.684,0.684,0.684
			s0.684-0.306,0.684-0.684V9.619c0-1.168-0.951-2.119-2.119-2.119H77.119C75.951,7.5,75,8.451,75,9.619v11.348
			c0,1.168,0.951,2.119,2.119,2.119h0.986v5.798l-2.356,3.453c-0.791,1.159-0.911,2.668-0.315,3.938l2.736,5.832
			c0.117,0.248,0.363,0.394,0.62,0.394c0.097,0,0.196-0.021,0.29-0.064c0.342-0.161,0.489-0.568,0.329-0.91l-2.736-5.832
			c-0.392-0.834-0.312-1.824,0.207-2.586l1.227-1.798v1.293c0,0.377,0.306,0.684,0.684,0.684s0.684-0.307,0.684-0.684V20.258
			c0-0.521,0.424-0.944,0.945-0.944s0.945,0.424,0.945,0.944v10.098c0,0.377,0.306,0.684,0.684,0.684s0.684-0.307,0.684-0.684
			v-3.188c0-0.521,0.424-0.944,0.945-0.944s0.945,0.424,0.945,0.944v3.188c0,0.377,0.306,0.684,0.684,0.684s0.684-0.307,0.684-0.684
			v-3.188c0-0.521,0.424-0.944,0.945-0.944c0.521,0,0.945,0.424,0.945,0.944v3.188c0,0.377,0.306,0.684,0.684,0.684
			s0.684-0.307,0.684-0.684v-1.988c0-0.521,0.424-0.944,0.945-0.944s0.945,0.424,0.945,0.944v5.715c0,1.522-0.231,3.031-0.687,4.483
			l-0.956,3.046c-0.113,0.36,0.088,0.744,0.448,0.857c0.068,0.021,0.137,0.031,0.205,0.031c0.291,0,0.561-0.188,0.652-0.479
			l0.956-3.046c0.497-1.585,0.749-3.231,0.749-4.893v-5.715C92.5,27.093,91.463,26.056,90.188,26.056z"/>
		<path id="XMLID_877_" fill="#EF4434" d="M70.967,7.5H59.619c-1.168,0-2.119,0.951-2.119,2.119v11.348
			c0,1.168,0.951,2.119,2.119,2.119h2.939c0.377,0,0.684-0.307,0.684-0.684c0-0.378-0.306-0.684-0.684-0.684h-2.939
			c-0.415,0-0.752-0.338-0.752-0.752V9.619c0-0.415,0.337-0.752,0.752-0.752h11.348c0.415,0,0.752,0.337,0.752,0.752v11.348
			c0,0.414-0.337,0.752-0.752,0.752h-2.939c-0.377,0-0.684,0.306-0.684,0.684c0,0.377,0.306,0.684,0.684,0.684h2.939
			c1.168,0,2.119-0.951,2.119-2.119V9.619C73.086,8.451,72.135,7.5,70.967,7.5z"/>
		<path id="XMLID_879_" fill="#EF4434" d="M68.177,18.177c0.267-0.267,0.267-0.699,0-0.967l-1.917-1.917l1.917-1.917
			c0.267-0.268,0.267-0.7,0-0.967c-0.267-0.268-0.7-0.268-0.967,0l-1.917,1.917l-1.917-1.917c-0.267-0.268-0.7-0.268-0.967,0
			c-0.267,0.267-0.267,0.699,0,0.967l1.917,1.917l-1.917,1.917c-0.267,0.268-0.267,0.7,0,0.967c0.134,0.134,0.309,0.2,0.483,0.2
			c0.175,0,0.35-0.066,0.483-0.2l1.917-1.917l1.917,1.917c0.133,0.134,0.309,0.2,0.483,0.2S68.044,18.311,68.177,18.177z"/>
		<path id="XMLID_938_" fill="#EF4434" d="M85.831,11.96l-3.407,3.407l-1.43-1.431c-0.267-0.267-0.7-0.267-0.967,0
			c-0.267,0.268-0.267,0.7,0,0.967l1.914,1.914c0.134,0.133,0.309,0.2,0.483,0.2s0.35-0.067,0.483-0.2l3.89-3.891
			c0.267-0.267,0.267-0.699,0-0.967C86.53,11.693,86.098,11.693,85.831,11.96z"/>
		<path id="XMLID_940_" fill="#EF4434" d="M65.293,21.719c-0.18,0-0.356,0.073-0.483,0.2c-0.127,0.127-0.2,0.304-0.2,0.483
			s0.073,0.355,0.2,0.483c0.127,0.127,0.304,0.2,0.483,0.2s0.356-0.073,0.483-0.2c0.127-0.128,0.2-0.304,0.2-0.483
			s-0.073-0.356-0.2-0.483S65.473,21.719,65.293,21.719z"/>
		<path id="XMLID_1012_" fill="#EF4434" d="M89.902,14.609c-0.18,0-0.356,0.073-0.483,0.2c-0.127,0.127-0.2,0.304-0.2,0.483
			c0,0.181,0.073,0.355,0.2,0.483c0.127,0.127,0.304,0.2,0.483,0.2s0.356-0.073,0.483-0.2c0.127-0.128,0.201-0.304,0.201-0.483
			s-0.073-0.356-0.201-0.483C90.258,14.683,90.082,14.609,89.902,14.609z"/>
	</g>
</g>
<g id="XMLID_1_">
	<g id="XMLID_2_">
		<path id="XMLID_8_" fill="#FFFFFF" d="M90.188,76.056c-0.398,0-0.773,0.101-1.101,0.279c-0.335-0.864-1.175-1.479-2.156-1.479
			c-0.635,0-1.21,0.257-1.629,0.673c-0.418-0.416-0.994-0.673-1.628-0.673c-0.336,0-0.656,0.073-0.945,0.202v-1.975
			c0.021,0.002,0.042,0.003,0.064,0.003h5.674c1.168,0,2.119-0.951,2.119-2.119v-2.939c0-0.378-0.306-0.684-0.684-0.684
			s-0.684,0.306-0.684,0.684v2.939c0,0.414-0.337,0.752-0.752,0.752h-5.674c-0.021,0-0.043,0.001-0.064,0.003v-1.464
			c0-1.274-1.037-2.312-2.312-2.312s-2.312,1.037-2.312,2.312v1.461h-0.986c-0.415,0-0.752-0.338-0.752-0.752V59.619
			c0-0.414,0.337-0.752,0.752-0.752h11.348c0.415,0,0.752,0.338,0.752,0.752v2.939c0,0.378,0.306,0.684,0.684,0.684
			s0.684-0.306,0.684-0.684v-2.939c0-1.168-0.951-2.119-2.119-2.119H77.119C75.951,57.5,75,58.451,75,59.619v11.348
			c0,1.168,0.951,2.119,2.119,2.119h0.986v5.798l-2.356,3.453c-0.791,1.159-0.911,2.668-0.315,3.938l2.736,5.832
			c0.117,0.248,0.363,0.394,0.62,0.394c0.097,0,0.196-0.021,0.29-0.064c0.342-0.161,0.489-0.568,0.329-0.91l-2.736-5.832
			c-0.392-0.834-0.312-1.824,0.207-2.586l1.227-1.798v1.293c0,0.377,0.306,0.684,0.684,0.684s0.684-0.307,0.684-0.684V70.258
			c0-0.521,0.424-0.944,0.945-0.944s0.945,0.424,0.945,0.944v10.098c0,0.377,0.306,0.684,0.684,0.684s0.684-0.307,0.684-0.684
			v-3.188c0-0.521,0.424-0.944,0.945-0.944s0.945,0.424,0.945,0.944v3.188c0,0.377,0.306,0.684,0.684,0.684s0.684-0.307,0.684-0.684
			v-3.188c0-0.521,0.424-0.944,0.945-0.944c0.521,0,0.945,0.424,0.945,0.944v3.188c0,0.377,0.306,0.684,0.684,0.684
			s0.684-0.307,0.684-0.684v-1.988c0-0.521,0.424-0.944,0.945-0.944s0.945,0.424,0.945,0.944v5.715c0,1.522-0.231,3.031-0.687,4.483
			l-0.956,3.046c-0.113,0.36,0.088,0.744,0.448,0.857c0.068,0.021,0.137,0.031,0.205,0.031c0.291,0,0.561-0.188,0.652-0.479
			l0.956-3.046c0.497-1.585,0.749-3.231,0.749-4.893v-5.715C92.5,77.093,91.463,76.056,90.188,76.056z"/>
		<path id="XMLID_7_" fill="#FFFFFF" d="M70.967,57.5H59.619c-1.168,0-2.119,0.951-2.119,2.119v11.348
			c0,1.168,0.951,2.119,2.119,2.119h2.939c0.377,0,0.684-0.307,0.684-0.684c0-0.378-0.306-0.684-0.684-0.684h-2.939
			c-0.415,0-0.752-0.338-0.752-0.752V59.619c0-0.414,0.337-0.752,0.752-0.752h11.348c0.415,0,0.752,0.338,0.752,0.752v11.348
			c0,0.414-0.337,0.752-0.752,0.752h-2.939c-0.377,0-0.684,0.306-0.684,0.684c0,0.377,0.306,0.684,0.684,0.684h2.939
			c1.168,0,2.119-0.951,2.119-2.119V59.619C73.086,58.451,72.135,57.5,70.967,57.5z"/>
		<path id="XMLID_6_" fill="#FFFFFF" d="M68.177,68.177c0.267-0.267,0.267-0.699,0-0.967l-1.917-1.917l1.917-1.917
			c0.267-0.268,0.267-0.7,0-0.967c-0.267-0.268-0.7-0.268-0.967,0l-1.917,1.917l-1.917-1.917c-0.267-0.268-0.7-0.268-0.967,0
			c-0.267,0.267-0.267,0.699,0,0.967l1.917,1.917l-1.917,1.917c-0.267,0.268-0.267,0.7,0,0.967c0.134,0.134,0.309,0.2,0.483,0.2
			c0.175,0,0.35-0.066,0.483-0.2l1.917-1.917l1.917,1.917c0.133,0.134,0.309,0.2,0.483,0.2S68.044,68.311,68.177,68.177z"/>
		<path id="XMLID_5_" fill="#FFFFFF" d="M85.831,61.96l-3.407,3.407l-1.43-1.431c-0.267-0.267-0.7-0.267-0.967,0
			c-0.267,0.268-0.267,0.7,0,0.967l1.914,1.914c0.134,0.133,0.309,0.2,0.483,0.2s0.35-0.067,0.483-0.2l3.89-3.891
			c0.267-0.267,0.267-0.699,0-0.967C86.53,61.693,86.098,61.693,85.831,61.96z"/>
		<path id="XMLID_4_" fill="#FFFFFF" d="M65.293,71.719c-0.18,0-0.356,0.073-0.483,0.2c-0.127,0.127-0.2,0.304-0.2,0.483
			s0.073,0.355,0.2,0.483c0.127,0.127,0.304,0.2,0.483,0.2s0.356-0.073,0.483-0.2c0.127-0.128,0.2-0.304,0.2-0.483
			s-0.073-0.356-0.2-0.483S65.473,71.719,65.293,71.719z"/>
		<path id="XMLID_3_" fill="#FFFFFF" d="M89.902,64.609c-0.18,0-0.356,0.073-0.483,0.2c-0.127,0.127-0.2,0.304-0.2,0.483
			c0,0.181,0.073,0.355,0.2,0.483c0.127,0.127,0.304,0.2,0.483,0.2s0.356-0.073,0.483-0.2c0.127-0.128,0.201-0.304,0.201-0.483
			s-0.073-0.356-0.201-0.483C90.258,64.683,90.082,64.609,89.902,64.609z"/>
	</g>
</g>
<g>
	<path fill="#EE4333" d="M126.6,33.533c0-0.883-0.716-1.601-1.6-1.601s-1.6,0.718-1.6,1.601c0,0.884,0.716,1.6,1.6,1.6
		S126.6,34.417,126.6,33.533z M125,34.067c-0.295,0-0.533-0.239-0.533-0.534S124.705,33,125,33s0.533,0.238,0.533,0.533
		S125.295,34.067,125,34.067z"/>
	<path fill="#EE4333" d="M139.4,9H110.6c-0.884,0-1.6,0.716-1.6,1.6v24c0,0.885,0.716,1.601,1.6,1.601h10.624l-1.28,1.6H115.4
		c-0.295,0-0.533,0.238-0.533,0.533v2.134c0,0.295,0.238,0.533,0.533,0.533H134.6c0.295,0,0.533-0.238,0.533-0.533v-2.134
		c0-0.295-0.238-0.533-0.533-0.533h-4.543l-1.28-1.6H139.4c0.884,0,1.6-0.716,1.6-1.601v-24C141,9.716,140.284,9,139.4,9z
		 M134.067,38.867v1.065h-18.135v-1.065H134.067z M121.31,37.8l1.28-1.6h4.821l1.28,1.6H121.31z M139.933,34.6
		c0,0.295-0.238,0.533-0.532,0.533H110.6c-0.294,0-0.532-0.238-0.532-0.533v-2.667h29.865V34.6z M114.333,30.867V14.333h19.2v16.534
		H114.333z M139.933,30.867H134.6V13.267h-21.333v17.601h-3.199V12.2h29.865V30.867z M139.933,11.133h-29.865V10.6
		c0-0.295,0.238-0.534,0.532-0.534H139.4c0.294,0,0.532,0.239,0.532,0.534V11.133z"/>
	<path fill="#EE4333" d="M111.133,13.267h1.067v4.267h-1.067V13.267z"/>
	<path fill="#EE4333" d="M111.133,18.6h1.067v1.067h-1.067V18.6z"/>
	<path fill="#EE4333" d="M138.867,29.267V25H137.8v3.733h-1.6V29.8h2.133C138.628,29.8,138.867,29.562,138.867,29.267z"/>
	<path fill="#EE4333" d="M120.733,16.466h5.334v1.067h-5.334V16.466z"/>
	<path fill="#EE4333" d="M120.733,18.6h3.199v1.067h-3.199V18.6z"/>
	<path fill="#EE4333" d="M127.133,16.466h5.334v1.067h-5.334V16.466z"/>
	<path fill="#EE4333" d="M120.733,21.8h6.934v1.067h-6.934V21.8z"/>
	<path fill="#EE4333" d="M125,18.6h7.467v1.067H125V18.6z"/>
	<path fill="#EE4333" d="M128.733,21.8h3.733v1.067h-3.733V21.8z"/>
	<path fill="#EE4333" d="M120.733,25h11.733v1.067h-11.733V25z"/>
	<path fill="#EE4333" d="M120.733,27.133h6.934V28.2h-6.934V27.133z"/>
	<path fill="#EE4333" d="M128.733,27.133h3.733V28.2h-3.733V27.133z"/>
	<path fill="#EE4333" d="M117,18.38l-0.689-0.69l-0.754,0.754l1.066,1.067c0.208,0.208,0.546,0.208,0.754,0l2.667-2.667
		l-0.755-0.754L117,18.38z"/>
	<path fill="#EE4333" d="M117,22.646l-0.689-0.689l-0.754,0.755l1.066,1.065c0.208,0.209,0.546,0.209,0.754,0l2.667-2.666
		l-0.755-0.754L117,22.646z"/>
	<path fill="#EE4333" d="M117,27.445l-0.689-0.689l-0.754,0.755l1.066,1.066c0.208,0.209,0.546,0.209,0.754,0l2.667-2.666
		l-0.755-0.755L117,27.445z"/>
</g>
<g>
	<path fill="#FFFFFF" d="M126.6,83.533c0-0.883-0.716-1.601-1.6-1.601s-1.6,0.718-1.6,1.601c0,0.884,0.716,1.6,1.6,1.6
		S126.6,84.417,126.6,83.533z M125,84.067c-0.295,0-0.533-0.239-0.533-0.534S124.705,83,125,83s0.533,0.238,0.533,0.533
		S125.295,84.067,125,84.067z"/>
	<path fill="#FFFFFF" d="M139.4,59H110.6c-0.884,0-1.6,0.716-1.6,1.601V84.6c0,0.885,0.716,1.601,1.6,1.601h10.624l-1.28,1.6H115.4
		c-0.295,0-0.533,0.238-0.533,0.533v2.134c0,0.295,0.238,0.533,0.533,0.533H134.6c0.295,0,0.533-0.238,0.533-0.533v-2.134
		c0-0.295-0.238-0.533-0.533-0.533h-4.543l-1.28-1.6H139.4c0.884,0,1.6-0.716,1.6-1.601V60.601C141,59.716,140.284,59,139.4,59z
		 M134.067,88.867v1.065h-18.135v-1.065H134.067z M121.31,87.8l1.28-1.6h4.821l1.28,1.6H121.31z M139.933,84.6
		c0,0.295-0.238,0.533-0.532,0.533H110.6c-0.294,0-0.532-0.238-0.532-0.533v-2.667h29.865V84.6z M114.333,80.867V64.333h19.2v16.534
		H114.333z M139.933,80.867H134.6V63.267h-21.333v17.601h-3.199V62.2h29.865V80.867z M139.933,61.134h-29.865v-0.533
		c0-0.295,0.238-0.534,0.532-0.534H139.4c0.294,0,0.532,0.239,0.532,0.534V61.134z"/>
	<path fill="#FFFFFF" d="M111.133,63.267h1.067v4.267h-1.067V63.267z"/>
	<path fill="#FFFFFF" d="M111.133,68.6h1.067v1.067h-1.067V68.6z"/>
	<path fill="#FFFFFF" d="M138.867,79.267V75H137.8v3.733h-1.6V79.8h2.133C138.628,79.8,138.867,79.562,138.867,79.267z"/>
	<path fill="#FFFFFF" d="M120.733,66.466h5.334v1.067h-5.334V66.466z"/>
	<path fill="#FFFFFF" d="M120.733,68.6h3.199v1.067h-3.199V68.6z"/>
	<path fill="#FFFFFF" d="M127.133,66.466h5.334v1.067h-5.334V66.466z"/>
	<path fill="#FFFFFF" d="M120.733,71.8h6.934v1.067h-6.934V71.8z"/>
	<path fill="#FFFFFF" d="M125,68.6h7.467v1.067H125V68.6z"/>
	<path fill="#FFFFFF" d="M128.733,71.8h3.733v1.067h-3.733V71.8z"/>
	<path fill="#FFFFFF" d="M120.733,75h11.733v1.067h-11.733V75z"/>
	<path fill="#FFFFFF" d="M120.733,77.133h6.934V78.2h-6.934V77.133z"/>
	<path fill="#FFFFFF" d="M128.733,77.133h3.733V78.2h-3.733V77.133z"/>
	<path fill="#FFFFFF" d="M117,68.38l-0.689-0.69l-0.754,0.754l1.066,1.067c0.208,0.208,0.546,0.208,0.754,0l2.667-2.667
		l-0.755-0.754L117,68.38z"/>
	<path fill="#FFFFFF" d="M117,72.646l-0.689-0.689l-0.754,0.755l1.066,1.065c0.208,0.209,0.546,0.209,0.754,0l2.667-2.666
		l-0.755-0.754L117,72.646z"/>
	<path fill="#FFFFFF" d="M117,77.445l-0.689-0.689l-0.754,0.755l1.066,1.066c0.208,0.209,0.546,0.209,0.754,0l2.667-2.666
		l-0.755-0.755L117,77.445z"/>
</g>
<g>
	<g>
		<g>
			<path fill="#EE4333" d="M180.843,26.065c-0.295,0-0.533,0.239-0.533,0.532v12.787c0,0.294-0.238,0.532-0.532,0.532h-19.179
				c-0.293,0-0.533-0.238-0.533-0.532V10.616c0-0.295,0.239-0.533,0.533-0.533h19.178c0.295,0,0.533,0.239,0.533,0.533v3.196
				c0,0.294,0.238,0.533,0.533,0.533c0.294,0,0.532-0.238,0.532-0.533v-3.196c0-0.883-0.715-1.599-1.599-1.599h-19.178
				c-0.882,0-1.598,0.715-1.598,1.599v28.768c0,0.882,0.716,1.598,1.598,1.598h19.178c0.884,0,1.599-0.716,1.599-1.598V26.599
				C181.375,26.304,181.137,26.065,180.843,26.065z"/>
			<path fill="#EE4333" d="M190.22,10.828c-1.037-1.037-2.717-1.041-3.759-0.008l0.002,0l-3.509,3.507l-18.341,18.342
				c-0.005,0.005-0.007,0.011-0.012,0.017c-0.042,0.044-0.076,0.095-0.101,0.15l-0.004,0.009l-2.256,5.264
				c-0.07,0.165-0.054,0.354,0.045,0.503c0.099,0.149,0.265,0.239,0.445,0.239c0.072,0,0.144-0.014,0.21-0.042l5.264-2.256
				l0.009-0.004c0.056-0.024,0.106-0.059,0.15-0.101c0.005-0.005,0.012-0.006,0.017-0.012l18.342-18.341l3.506-3.508
				C191.261,13.545,191.257,11.865,190.22,10.828z M163.742,37.307l1.425-3.327l1.901,1.901L163.742,37.307z M168.003,35.305
				l-2.261-2.261l17.589-17.588l2.26,2.26L168.003,35.305z M186.345,16.963l-2.26-2.26l0.87-0.871l2.26,2.26L186.345,16.963z
				 M189.476,13.835l-0.002,0l-1.508,1.507l-2.258-2.262l1.507-1.504c0.404-0.404,0.993-0.562,1.544-0.414
				c0.552,0.148,0.983,0.579,1.131,1.13C190.037,12.843,189.88,13.431,189.476,13.835z"/>
			<path fill="#EE4333" d="M176.58,13.812h-12.785c-0.294,0-0.532,0.238-0.532,0.533c0,0.294,0.238,0.533,0.532,0.533h12.785
				c0.295,0,0.533-0.239,0.533-0.533C177.113,14.051,176.875,13.812,176.58,13.812z"/>
			<path fill="#EE4333" d="M177.113,17.542c0-0.294-0.238-0.533-0.533-0.533h-12.785c-0.294,0-0.532,0.239-0.532,0.533
				c0,0.295,0.238,0.533,0.532,0.533h12.785C176.875,18.075,177.113,17.836,177.113,17.542z"/>
			<path fill="#EE4333" d="M163.795,20.205c-0.294,0-0.532,0.239-0.532,0.533c0,0.295,0.238,0.533,0.532,0.533h9.589
				c0.295,0,0.533-0.238,0.533-0.533c0-0.293-0.238-0.533-0.533-0.533H163.795z"/>
		</g>
	</g>
</g>
<g>
	<g>
		<g>
			<path fill="#FFFFFF" d="M180.843,76.065c-0.295,0-0.533,0.238-0.533,0.532v12.786c0,0.295-0.238,0.533-0.532,0.533h-19.179
				c-0.293,0-0.533-0.238-0.533-0.533V60.616c0-0.295,0.239-0.533,0.533-0.533h19.178c0.295,0,0.533,0.238,0.533,0.533v3.196
				c0,0.294,0.238,0.532,0.533,0.532c0.294,0,0.532-0.238,0.532-0.532v-3.196c0-0.883-0.715-1.599-1.599-1.599h-19.178
				c-0.882,0-1.598,0.716-1.598,1.599v28.768c0,0.883,0.716,1.599,1.598,1.599h19.178c0.884,0,1.599-0.716,1.599-1.599V76.599
				C181.375,76.304,181.137,76.065,180.843,76.065z"/>
			<path fill="#FFFFFF" d="M190.22,60.827c-1.037-1.037-2.717-1.04-3.759-0.008h0.002l-3.509,3.507l-18.341,18.343
				c-0.005,0.005-0.007,0.011-0.012,0.016c-0.042,0.045-0.076,0.096-0.101,0.15l-0.004,0.01l-2.256,5.264
				c-0.07,0.165-0.054,0.354,0.045,0.504c0.099,0.148,0.265,0.238,0.445,0.238c0.072,0,0.144-0.014,0.21-0.042l5.264-2.257
				l0.009-0.004c0.056-0.024,0.106-0.059,0.15-0.102c0.005-0.005,0.012-0.006,0.017-0.012l18.342-18.34l3.506-3.508
				C191.261,63.545,191.257,61.864,190.22,60.827z M163.742,87.307l1.425-3.327l1.901,1.901L163.742,87.307z M168.003,85.305
				l-2.261-2.261l17.589-17.588l2.26,2.26L168.003,85.305z M186.345,66.963l-2.26-2.26l0.87-0.87l2.26,2.26L186.345,66.963z
				 M189.476,63.835h-0.002l-1.508,1.507l-2.258-2.263l1.507-1.504c0.404-0.404,0.993-0.562,1.544-0.414
				c0.552,0.148,0.983,0.578,1.131,1.131C190.037,62.843,189.88,63.431,189.476,63.835z"/>
			<path fill="#FFFFFF" d="M176.58,63.812h-12.785c-0.294,0-0.532,0.238-0.532,0.532c0,0.295,0.238,0.533,0.532,0.533h12.785
				c0.295,0,0.533-0.238,0.533-0.533C177.113,64.051,176.875,63.812,176.58,63.812z"/>
			<path fill="#FFFFFF" d="M177.113,67.542c0-0.295-0.238-0.533-0.533-0.533h-12.785c-0.294,0-0.532,0.238-0.532,0.533
				s0.238,0.533,0.532,0.533h12.785C176.875,68.075,177.113,67.837,177.113,67.542z"/>
			<path fill="#FFFFFF" d="M163.795,70.205c-0.294,0-0.532,0.239-0.532,0.532c0,0.295,0.238,0.533,0.532,0.533h9.589
				c0.295,0,0.533-0.238,0.533-0.533c0-0.293-0.238-0.532-0.533-0.532H163.795z"/>
		</g>
	</g>
</g>
<g>
	<g>
		<g>
			<path fill="#EE4333" d="M218.238,14.514c-0.302,0-0.548,0.246-0.548,0.548c0,0.665-0.541,1.206-1.205,1.206
				c-0.665,0-1.206-0.541-1.206-1.206c0-0.665,0.541-1.206,1.206-1.206c0.303,0,0.548-0.246,0.548-0.548s-0.245-0.548-0.548-0.548
				c-1.27,0-2.302,1.033-2.302,2.302s1.032,2.302,2.302,2.302c1.269,0,2.301-1.033,2.301-2.302
				C218.787,14.76,218.541,14.514,218.238,14.514z"/>
		</g>
	</g>
	<g>
		<g>
			<path fill="#EE4333" d="M218.238,20.944c-0.302,0-0.548,0.245-0.548,0.548c0,0.665-0.541,1.206-1.205,1.206
				c-0.665,0-1.206-0.541-1.206-1.206s0.541-1.205,1.206-1.205c0.303,0,0.548-0.246,0.548-0.549s-0.245-0.548-0.548-0.548
				c-1.27,0-2.302,1.033-2.302,2.302c0,1.27,1.032,2.302,2.302,2.302c1.269,0,2.301-1.032,2.301-2.302
				C218.787,21.189,218.541,20.944,218.238,20.944z"/>
		</g>
	</g>
	<g>
		<g>
			<path fill="#EE4333" d="M224.669,22.113h-4.092c-0.303,0-0.549,0.245-0.549,0.548s0.246,0.549,0.549,0.549h4.092
				c0.303,0,0.548-0.246,0.548-0.549S224.972,22.113,224.669,22.113z"/>
		</g>
	</g>
	<g>
		<g>
			<path fill="#EE4333" d="M224.669,19.775h-4.092c-0.303,0-0.549,0.245-0.549,0.548s0.246,0.548,0.549,0.548h4.092
				c0.303,0,0.548-0.245,0.548-0.548S224.972,19.775,224.669,19.775z"/>
		</g>
	</g>
	<g>
		<g>
			<path fill="#EE4333" d="M223.5,28.544h-2.923c-0.303,0-0.549,0.245-0.549,0.548s0.246,0.548,0.549,0.548h2.923
				c0.302,0,0.548-0.245,0.548-0.548S223.802,28.544,223.5,28.544z"/>
		</g>
	</g>
	<g>
		<g>
			<path fill="#EE4333" d="M224.669,26.205h-4.092c-0.303,0-0.549,0.246-0.549,0.548c0,0.303,0.246,0.549,0.549,0.549h4.092
				c0.303,0,0.548-0.246,0.548-0.549C225.217,26.451,224.972,26.205,224.669,26.205z"/>
		</g>
	</g>
	<g>
		<g>
			<path fill="#EE4333" d="M229.93,15.684h-9.353c-0.303,0-0.549,0.245-0.549,0.548s0.246,0.548,0.549,0.548h9.353
				c0.303,0,0.548-0.245,0.548-0.548S230.232,15.684,229.93,15.684z"/>
		</g>
	</g>
	<g>
		<g>
			<path fill="#EE4333" d="M227.592,13.345h-7.015c-0.303,0-0.549,0.245-0.549,0.548s0.246,0.548,0.549,0.548h7.015
				c0.303,0,0.548-0.246,0.548-0.548S227.895,13.345,227.592,13.345z"/>
		</g>
	</g>
	<g>
		<g>
			<path fill="#EE4333" d="M218.238,27.374c-0.302,0-0.548,0.246-0.548,0.549c0,0.664-0.541,1.205-1.205,1.205
				c-0.665,0-1.206-0.541-1.206-1.205c0-0.665,0.541-1.206,1.206-1.206c0.303,0,0.548-0.245,0.548-0.548s-0.245-0.548-0.548-0.548
				c-1.27,0-2.302,1.032-2.302,2.302c0,1.269,1.032,2.301,2.302,2.301c1.269,0,2.301-1.032,2.301-2.301
				C218.787,27.62,218.541,27.374,218.238,27.374z"/>
		</g>
	</g>
	<g>
		<g>
			<path fill="#EE4333" d="M232.268,7.5h-19.874c-0.947,0-1.718,0.77-1.718,1.717v24.551c0,0.947,0.771,1.718,1.718,1.718h9.937
				c0.303,0,0.549-0.246,0.549-0.548c0-0.303-0.246-0.549-0.549-0.549h-9.937c-0.343,0-0.621-0.278-0.621-0.621V9.217
				c0-0.342,0.278-0.621,0.621-0.621h19.874c0.343,0,0.621,0.279,0.621,0.621v18.121c0,0.303,0.246,0.548,0.549,0.548
				c0.302,0,0.548-0.245,0.548-0.548V9.217C233.985,8.27,233.215,7.5,232.268,7.5z"/>
		</g>
	</g>
	<g>
		<g>
			<path fill="#EE4333" d="M237.441,29.723c-0.509-0.051-1.018,0.094-1.421,0.399c-0.321-0.538-0.868-0.92-1.501-0.983
				c-0.51-0.051-1.019,0.094-1.422,0.399c-0.321-0.539-0.868-0.921-1.501-0.984c-0.39-0.039-0.777,0.036-1.119,0.21v-6.979
				c0-0.567-0.241-1.11-0.661-1.49c-0.421-0.381-0.986-0.566-1.554-0.51c-1.012,0.102-1.804,1.017-1.804,2.083v6.996l-1.611,1.611
				c-0.855,0.856-1.201,2.07-0.924,3.249l1.223,5.198c0.496,2.106,2.353,3.577,4.517,3.577h4.943c2.558,0,4.64-2.082,4.64-4.64
				v-6.055C239.246,30.739,238.453,29.824,237.441,29.723z M238.149,37.859c0,1.954-1.589,3.544-3.543,3.544h-4.943
				c-1.652,0-3.071-1.123-3.449-2.732l-1.224-5.197c-0.189-0.807,0.047-1.638,0.633-2.223l0.836-0.837v1.893
				c0,0.303,0.245,0.548,0.548,0.548s0.548-0.245,0.548-0.548V21.868c0-0.511,0.359-0.946,0.817-0.992
				c0.264-0.026,0.515,0.056,0.709,0.231c0.191,0.173,0.301,0.42,0.301,0.678v9.645c0,0.303,0.245,0.548,0.548,0.548
				s0.548-0.245,0.548-0.548v-0.877c0-0.258,0.109-0.504,0.301-0.678c0.194-0.175,0.445-0.257,0.709-0.23
				c0.458,0.046,0.817,0.481,0.817,0.992v1.378c0,0.302,0.245,0.548,0.548,0.548s0.548-0.245,0.548-0.548v-0.877
				c0-0.258,0.109-0.505,0.301-0.678c0.194-0.176,0.445-0.258,0.709-0.231c0.458,0.046,0.817,0.481,0.817,0.992v1.378
				c0,0.303,0.245,0.548,0.548,0.548s0.548-0.245,0.548-0.548v-0.877c0-0.258,0.109-0.504,0.301-0.678
				c0.194-0.175,0.445-0.257,0.709-0.23c0.458,0.046,0.817,0.481,0.817,0.992L238.149,37.859L238.149,37.859z"/>
		</g>
	</g>
</g>
<g>
	<g>
		<g>
			<path fill="#FFFFFF" d="M218.238,64.515c-0.302,0-0.548,0.245-0.548,0.548c0,0.665-0.541,1.206-1.205,1.206
				c-0.665,0-1.206-0.541-1.206-1.206s0.541-1.206,1.206-1.206c0.303,0,0.548-0.245,0.548-0.548s-0.245-0.548-0.548-0.548
				c-1.27,0-2.302,1.033-2.302,2.302s1.032,2.302,2.302,2.302c1.269,0,2.301-1.033,2.301-2.302
				C218.787,64.76,218.541,64.515,218.238,64.515z"/>
		</g>
	</g>
	<g>
		<g>
			<path fill="#FFFFFF" d="M218.238,70.944c-0.302,0-0.548,0.245-0.548,0.548c0,0.665-0.541,1.206-1.205,1.206
				c-0.665,0-1.206-0.541-1.206-1.206s0.541-1.205,1.206-1.205c0.303,0,0.548-0.246,0.548-0.549s-0.245-0.548-0.548-0.548
				c-1.27,0-2.302,1.033-2.302,2.302c0,1.27,1.032,2.302,2.302,2.302c1.269,0,2.301-1.032,2.301-2.302
				C218.787,71.189,218.541,70.944,218.238,70.944z"/>
		</g>
	</g>
	<g>
		<g>
			<path fill="#FFFFFF" d="M224.669,72.113h-4.092c-0.303,0-0.549,0.245-0.549,0.548s0.246,0.549,0.549,0.549h4.092
				c0.303,0,0.548-0.246,0.548-0.549S224.972,72.113,224.669,72.113z"/>
		</g>
	</g>
	<g>
		<g>
			<path fill="#FFFFFF" d="M224.669,69.775h-4.092c-0.303,0-0.549,0.245-0.549,0.548s0.246,0.548,0.549,0.548h4.092
				c0.303,0,0.548-0.245,0.548-0.548S224.972,69.775,224.669,69.775z"/>
		</g>
	</g>
	<g>
		<g>
			<path fill="#FFFFFF" d="M223.5,78.544h-2.923c-0.303,0-0.549,0.245-0.549,0.548s0.246,0.548,0.549,0.548h2.923
				c0.302,0,0.548-0.245,0.548-0.548S223.802,78.544,223.5,78.544z"/>
		</g>
	</g>
	<g>
		<g>
			<path fill="#FFFFFF" d="M224.669,76.205h-4.092c-0.303,0-0.549,0.246-0.549,0.548c0,0.303,0.246,0.549,0.549,0.549h4.092
				c0.303,0,0.548-0.246,0.548-0.549C225.217,76.451,224.972,76.205,224.669,76.205z"/>
		</g>
	</g>
	<g>
		<g>
			<path fill="#FFFFFF" d="M229.93,65.684h-9.353c-0.303,0-0.549,0.245-0.549,0.548s0.246,0.548,0.549,0.548h9.353
				c0.303,0,0.548-0.245,0.548-0.548S230.232,65.684,229.93,65.684z"/>
		</g>
	</g>
	<g>
		<g>
			<path fill="#FFFFFF" d="M227.592,63.345h-7.015c-0.303,0-0.549,0.246-0.549,0.549s0.246,0.548,0.549,0.548h7.015
				c0.303,0,0.548-0.245,0.548-0.548S227.895,63.345,227.592,63.345z"/>
		</g>
	</g>
	<g>
		<g>
			<path fill="#FFFFFF" d="M218.238,77.374c-0.302,0-0.548,0.246-0.548,0.549c0,0.664-0.541,1.205-1.205,1.205
				c-0.665,0-1.206-0.541-1.206-1.205c0-0.665,0.541-1.206,1.206-1.206c0.303,0,0.548-0.245,0.548-0.548s-0.245-0.548-0.548-0.548
				c-1.27,0-2.302,1.032-2.302,2.302c0,1.269,1.032,2.301,2.302,2.301c1.269,0,2.301-1.032,2.301-2.301
				C218.787,77.62,218.541,77.374,218.238,77.374z"/>
		</g>
	</g>
	<g>
		<g>
			<path fill="#FFFFFF" d="M232.268,57.5h-19.874c-0.947,0-1.718,0.771-1.718,1.717v24.551c0,0.947,0.771,1.718,1.718,1.718h9.937
				c0.303,0,0.549-0.246,0.549-0.548c0-0.303-0.246-0.549-0.549-0.549h-9.937c-0.343,0-0.621-0.278-0.621-0.621V59.217
				c0-0.343,0.278-0.621,0.621-0.621h19.874c0.343,0,0.621,0.278,0.621,0.621v18.121c0,0.303,0.246,0.548,0.549,0.548
				c0.302,0,0.548-0.245,0.548-0.548V59.217C233.985,58.271,233.215,57.5,232.268,57.5z"/>
		</g>
	</g>
	<g>
		<g>
			<path fill="#FFFFFF" d="M237.441,79.723c-0.509-0.051-1.018,0.094-1.421,0.399c-0.321-0.538-0.868-0.92-1.501-0.983
				c-0.51-0.051-1.019,0.094-1.422,0.399c-0.321-0.539-0.868-0.921-1.501-0.984c-0.39-0.039-0.777,0.036-1.119,0.21v-6.979
				c0-0.567-0.241-1.11-0.661-1.49c-0.421-0.381-0.986-0.566-1.554-0.51c-1.012,0.102-1.804,1.017-1.804,2.083v6.996l-1.611,1.611
				c-0.855,0.856-1.201,2.07-0.924,3.249l1.223,5.198c0.496,2.106,2.353,3.577,4.517,3.577h4.943c2.558,0,4.64-2.082,4.64-4.64
				v-6.055C239.246,80.739,238.453,79.824,237.441,79.723z M238.149,87.859c0,1.954-1.589,3.544-3.543,3.544h-4.943
				c-1.652,0-3.071-1.123-3.449-2.732l-1.224-5.197c-0.189-0.807,0.047-1.638,0.633-2.223l0.836-0.837v1.893
				c0,0.303,0.245,0.548,0.548,0.548s0.548-0.245,0.548-0.548V71.868c0-0.511,0.359-0.946,0.817-0.992
				c0.264-0.026,0.515,0.056,0.709,0.231c0.191,0.173,0.301,0.42,0.301,0.678v9.645c0,0.303,0.245,0.548,0.548,0.548
				s0.548-0.245,0.548-0.548v-0.877c0-0.258,0.109-0.504,0.301-0.678c0.194-0.175,0.445-0.257,0.709-0.23
				c0.458,0.046,0.817,0.481,0.817,0.992v1.378c0,0.302,0.245,0.548,0.548,0.548s0.548-0.245,0.548-0.548v-0.877
				c0-0.258,0.109-0.505,0.301-0.678c0.194-0.176,0.445-0.258,0.709-0.231c0.458,0.046,0.817,0.481,0.817,0.992v1.378
				c0,0.303,0.245,0.548,0.548,0.548s0.548-0.245,0.548-0.548v-0.877c0-0.258,0.109-0.504,0.301-0.678
				c0.194-0.175,0.445-0.257,0.709-0.23c0.458,0.046,0.817,0.481,0.817,0.992L238.149,87.859L238.149,87.859z"/>
		</g>
	</g>
</g>
</svg>
