<svg width="65" height="65" viewBox="0 0 65 65" fill="none" xmlns="http://www.w3.org/2000/svg">
<path d="M25 32H41.6575" stroke="#00C2FF" stroke-width="3" stroke-linecap="round"/>
<path d="M33 33L33 50" stroke="#00C2FF" stroke-width="3" stroke-linecap="round"/>
<path d="M27.0469 52.5468L33.1343 50.29L39.0211 52.5468" stroke="#00C2FF" stroke-width="3" stroke-linecap="round" stroke-linejoin="round"/>
<path d="M10.0416 25.3459L11.8843 26.6918L12.6707 38.6258V41.1469L11.5364 54.5594" stroke="#00C2FF" stroke-width="3" stroke-linecap="round" stroke-linejoin="round"/>
<path d="M12.6395 41.0125H22.3988" stroke="#00C2FF" stroke-width="3" stroke-linecap="round"/>
<path d="M20.365 41.0134L21.7516 54.3304" stroke="#00C2FF" stroke-width="3" stroke-linecap="round"/>
<path d="M56.504 25.5166L54.6613 26.8546L53.8749 38.7197V41.226L55.0092 54.5594" stroke="#00C2FF" stroke-width="3" stroke-linecap="round" stroke-linejoin="round"/>
<path d="M53.9061 41.0125H44.1469" stroke="#00C2FF" stroke-width="3" stroke-linecap="round"/>
<path d="M46.1844 41.0134L44.7977 54.3304" stroke="#00C2FF" stroke-width="3" stroke-linecap="round"/>
<path d="M8.69873 55H57.7142" stroke="#00C2FF" stroke-width="2" stroke-linecap="round"/>
<path d="M8 16.4678C8 16.4678 10.289 11 12.7564 11C15.2237 11 17.7476 16.4678 17.7476 16.4678" stroke="#00C2FF" stroke-width="3" stroke-linecap="round" stroke-linejoin="round"/>
<path d="M18.1793 16.4678C18.1793 16.4678 20.4683 11 22.9357 11C25.403 11 27.9269 16.4678 27.9269 16.4678" stroke="#00C2FF" stroke-width="3" stroke-linecap="round" stroke-linejoin="round"/>
<path d="M28.3584 16.4678C28.3584 16.4678 30.6474 11 33.1148 11C35.5821 11 38.1059 16.4678 38.1059 16.4678" stroke="#00C2FF" stroke-width="3" stroke-linecap="round" stroke-linejoin="round"/>
<path d="M38.5377 16.4678C38.5377 16.4678 40.8267 11 43.2941 11C45.7614 11 48.2853 16.4678 48.2853 16.4678" stroke="#00C2FF" stroke-width="3" stroke-linecap="round" stroke-linejoin="round"/>
<path d="M48.717 16.4678C48.717 16.4678 51.0061 11 53.4734 11C55.9407 11 57.9969 16.4678 57.9969 16.4678" stroke="#00C2FF" stroke-width="3" stroke-linecap="round" stroke-linejoin="round"/>
</svg>
