<svg fill="#ff5f59" height="60" viewBox="0 0 512 512" width="60" xmlns="http://www.w3.org/2000/svg"><g id="Out_line" data-name="Out line"><path d="m456 56h-400a40.04552 40.04552 0 0 0 -40 40v192h16v-192a24.0275 24.0275 0 0 1 24-24h400a24.0275 24.0275 0 0 1 24 24v232h-16v-224a16.01833 16.01833 0 0 0 -16-16h-384a16.01833 16.01833 0 0 0 -16 16v136h16v-136h384v224h-256v16h288v8a24.0275 24.0275 0 0 1 -24 24h-264v16h24v24a24.02718 24.02718 0 0 1 -24 24 8 8 0 0 0 0 16h128a8 8 0 0 0 0-16 24.02718 24.02718 0 0 1 -24-24v-24h160a40.04552 40.04552 0 0 0 40-40v-256a40.04552 40.04552 0 0 0 -40-40zm-167.98145 384h-64.0371a39.79847 39.79847 0 0 0 8.01855-24v-24h48v24a39.79847 39.79847 0 0 0 8.01855 24z"/><circle cx="256" cy="360" r="8"/><circle cx="88" cy="128" r="8"/><circle cx="112" cy="128" r="8"/><circle cx="136" cy="128" r="8"/><path d="m80 144h352v16h-352z"/><path d="m336 192a8.00008 8.00008 0 0 0 -8 8v88a8.00008 8.00008 0 0 0 8 8h88a8.00008 8.00008 0 0 0 8-8v-88a8.00008 8.00008 0 0 0 -8-8zm80 88h-72v-72h72z"/><path d="m112 200h32v16h-32z"/><path d="m160 200h32v16h-32z"/><path d="m208 200h64v16h-64z"/><path d="m288 200h16v16h-16z"/><path d="m80 232h32v16h-32z"/><path d="m128 232h48v16h-48z"/><path d="m240 232h64v16h-64z"/><path d="m192 232h32v16h-32z"/><path d="m152 264h24v16h-24z"/><path d="m192 264h80v16h-80z"/><path d="m368 243.31348 4.686 4.6864-10.34327 10.34338 11.31446 11.31348 18.34281-18.34326 10.34277 10.34326 11.31446-11.31348-16-16a8.00122 8.00122 0 0 0 -11.31446 0l-2.34277 2.34274-10.34277-10.34278a8.00122 8.00122 0 0 0 -11.31446 0l-16 16 11.31446 11.31348z"/><path d="m72 256h-24a8.00486 8.00486 0 0 0 -8 8v36.69l-21.65991 21.65a8.015 8.015 0 0 0 0 11.32l24 24a8.015 8.015 0 0 0 11.31982 0l8-8a3.30776 3.30776 0 0 1 4.68018 0 3.3139 3.3139 0 0 1 0 4.68l-8 8a41.99771 41.99771 0 0 0 -8.88009 46.2 40.0546 40.0546 0 0 0 -33.46 39.46 7.99786 7.99786 0 0 0 8 8h144a7.99786 7.99786 0 0 0 8-8 39.74268 39.74268 0 0 0 -8.02-24h.02a7.99786 7.99786 0 0 0 8-8v-56a104.11229 104.11229 0 0 0 -104-104zm-2.34009 117.66 8-8a19.3181 19.3181 0 0 0 -27.31982-27.32l-2.34009 2.35-12.68994-12.69 18.34985-18.34a8.008 8.008 0 0 0 2.34009-5.66v-20.69l10.34009 10.35a8.00763 8.00763 0 0 0 5.65991 2.34 64.07207 64.07207 0 0 1 64 64v40a8.0107 8.0107 0 0 1 -8 8h-60.41992a25.93783 25.93783 0 0 1 2.07983-34.34zm-36.28979 66.34a24.04417 24.04417 0 0 1 22.62988-16h80a24.04417 24.04417 0 0 1 22.62988 16zm126.62988-32h-9.37988a23.597 23.597 0 0 0 1.37988-8v-40a80.10159 80.10159 0 0 0 -76.62012-79.93l-8.06982-8.07h4.68994a88.104 88.104 0 0 1 88 88z"/></g></svg>