<svg id="Layer_5" enable-background="new 0 0 64 64" fill="#ff5f59" height="60" viewBox="0 0 64 64" width="60" xmlns="http://www.w3.org/2000/svg"><path d="m9.464 52.535h2v2h-2z" transform="matrix(.707 -.707 .707 .707 -34.79 23.08)"/><path d="m12.293 49.707h2v2h-2z" transform="matrix(.707 -.707 .707 .707 -31.962 24.251)"/><path d="m6.722 55.329h1.899v2h-1.899z" transform="matrix(.707 -.707 .707 .707 -37.583 21.923)"/><path d="m43.828 18.239c-1.073.457-1.828 1.522-1.828 2.761 0 1.654 1.346 3 3 3s3-1.346 3-3c0-.352-.072-.686-.184-1h4.369c-.113.314-.185.648-.185 1 0 1.654 1.346 3 3 3s3-1.346 3-3c0-1.134-.64-2.112-1.571-2.621l1.295-2.59c.18-.361.276-.767.276-1.171 0-1.443-1.174-2.618-2.618-2.618h-10.762l-.8-4h-4.82v2h3.18zm2.172 2.761c0 .552-.449 1-1 1s-1-.448-1-1 .449-1 1-1 1 .448 1 1zm9 1c-.551 0-1-.448-1-1s.449-1 1-1 1 .448 1 1-.449 1-1 1zm.382-8c.341 0 .618.277.618.618 0 .096-.022.191-.065.276l-1.553 3.106h-8.562l-.8-4z"/><path d="m45 36c0-1.902-.319-3.752-.937-5.529 1.895.521 3.884.662 5.897.403 6.674-.862 12.109-6.324 12.924-12.987.567-4.635-.981-9.178-4.246-12.462-3.266-3.286-7.799-4.859-12.432-4.32-6.52.758-11.857 5.81-12.979 12.284-.383 2.213-.269 4.434.313 6.551-1.78-.62-3.633-.94-5.54-.94-9.374 0-17 7.626-17 17 0 3.016.798 5.846 2.182 8.305l-10.12 8.499c-1.311 1.099-2.062 2.712-2.062 4.422 0 3.183 2.59 5.774 5.774 5.774 1.71 0 3.322-.751 4.422-2.062l8.497-10.12c2.46 1.384 5.29 2.182 8.307 2.182 9.374 0 17-7.626 17-17zm-9.803-22.27c.972-5.607 5.594-9.982 11.24-10.64.52-.061 1.038-.09 1.553-.09 3.467 0 6.765 1.354 9.229 3.834 2.83 2.847 4.171 6.787 3.679 10.81-.706 5.77-5.414 10.499-11.194 11.245-3.018.389-5.97-.252-8.545-1.852l-.527-.327-6.781 4.205c-.353.218-.851-.061-.851-.472v-.107c0-.079.017-.158.049-.229l3.554-7.858-.214-.427c-1.262-2.512-1.674-5.31-1.192-8.092zm-11.176 21.27c.052-1.447.217-2.791.46-4h6.584c.105.471.339.894.666 1.228.129.896.199 1.827.233 2.772zm7.958 2c-.052 1.447-.217 2.791-.46 4h-7.038c-.244-1.209-.408-2.553-.46-4zm.349-10.152c-.186-.42-.383-.811-.593-1.166.32.117.633.248.942.395zm-1.321 2.152h-6.016c.789-2.473 1.935-4 3.009-4 1.062 0 2.227 1.584 3.007 4zm-8.112 0h-3.374c1.246-1.507 2.891-2.666 4.764-3.341-.552.919-1.022 2.046-1.39 3.341zm-4.681 2h4.217c-.225 1.237-.364 2.581-.409 4h-4.971c.129-1.43.537-2.779 1.163-4zm3.808 6c.046 1.419.184 2.763.409 4h-4.217c-.626-1.221-1.034-2.57-1.164-4zm.873 6c.368 1.295.838 2.422 1.391 3.341-1.874-.675-3.518-1.834-4.764-3.341zm2.096 0h6.018c-.789 2.473-1.935 4-3.009 4s-2.22-1.527-3.009-4zm8.114 0h3.374c-1.246 1.507-2.891 2.666-4.764 3.341.552-.919 1.022-2.046 1.39-3.341zm4.681-2h-4.217c.225-1.237.364-2.581.409-4h4.971c-.129 1.43-.537 2.779-1.163 4zm-3.822-6c-.023-.69-.069-1.368-.139-2.037.38-.041.751-.143 1.079-.346l2.815-1.745c.681 1.285 1.098 2.685 1.23 4.129h-4.985zm-5.964-14c2.203 0 4.325.496 6.324 1.434l-.824 1.823c-1.725-.81-3.599-1.257-5.5-1.257-7.168 0-13 5.832-13 13s5.832 13 13 13 13-5.832 13-13c0-2.169-.544-4.288-1.576-6.187l1.219-.756c.277.157.559.296.843.434.995 2.055 1.514 4.24 1.514 6.509 0 8.271-6.729 15-15 15s-15-6.729-15-15 6.729-15 15-15zm-18.334 38.652c-.72.857-1.773 1.348-2.892 1.348-2.081 0-3.774-1.693-3.774-3.774 0-1.118.491-2.171 1.347-2.891l9.932-8.34c1.043 1.427 2.299 2.684 3.726 3.726z"/><path d="m8 11c1.654 0 3-1.346 3-3s-1.346-3-3-3-3 1.346-3 3 1.346 3 3 3zm0-4c.551 0 1 .448 1 1s-.449 1-1 1-1-.448-1-1 .449-1 1-1z"/><path d="m16 11c1.654 0 3-1.346 3-3s-1.346-3-3-3-3 1.346-3 3 1.346 3 3 3zm0-4c.551 0 1 .448 1 1s-.449 1-1 1-1-.448-1-1 .449-1 1-1z"/><path d="m24 11c1.654 0 3-1.346 3-3s-1.346-3-3-3-3 1.346-3 3 1.346 3 3 3zm0-4c.551 0 1 .448 1 1s-.449 1-1 1-1-.448-1-1 .449-1 1-1z"/><path d="m4 15h4.586l5.293 5.294c.45.448 1.072.706 1.707.706 1.331 0 2.414-1.083 2.414-2.414v-3.586h10c1.654 0 3-1.346 3-3v-8c0-1.654-1.346-3-3-3h-24c-1.654 0-3 1.346-3 3v8c0 1.654 1.346 3 3 3zm-1-11c0-.552.449-1 1-1h24c.551 0 1 .448 1 1v8c0 .552-.449 1-1 1h-12v5.586c0 .337-.468.531-.707.293l-5.879-5.879h-5.414c-.551 0-1-.448-1-1z"/><path d="m55 35v26h-2v-16h-8v16h-2v-8h-8v10h28v-28zm-14 26h-4v-6h4zm6-14h4v14h-4zm14 14h-4v-24h4z"/></svg>