<svg id="Capa_1" enable-background="new 0 0 512 512" height="130" viewBox="0 0 512 512" width="130" xmlns="http://www.w3.org/2000/svg" xmlns:xlink="http://www.w3.org/1999/xlink"><linearGradient id="SVGID_1_" gradientUnits="userSpaceOnUse" x1="256" x2="256" y1="512" y2="0"><stop offset="0" stop-color="#ffc8d1"/><stop offset="1" stop-color="#fff6f7"/></linearGradient><linearGradient id="SVGID_2_" gradientUnits="userSpaceOnUse" x1="256" x2="256" y1="407" y2="105"><stop offset="0" stop-color="#ffa68d"/><stop offset="1" stop-color="#fd3a84"/></linearGradient><g><g><circle cx="256" cy="256" fill="url(#SVGID_1_)" r="256"/></g><g><g><g><g><g><path d="m174.704 247.005c2.791.477 5.686-.468 7.696-2.489l15.15-15.163h40.423c-1.508 22.96-8.962 33.17-16.797 43.917-5.361 7.352-11.161 15.33-14.795 27.141h121.75c1.781-18.959 5.4-28.826 8.732-37.689 4.056-10.817 7.887-21.026 7.887-42.252 0-50.302-27.769-84.018-78.332-95.294-8.251-12.543-22.084-20.176-37.043-20.176-4.906 0-8.875 3.973-8.875 8.882v27.697c-23.8 18.988-67.672 54.196-67.672 54.196-3.259 2.619-4.264 7.156-2.392 10.903l17.75 35.529c1.283 2.551 3.71 4.338 6.518 4.798zm54.671-70.946c4.901 0 8.875 3.976 8.875 8.883 0 4.905-3.974 8.882-8.875 8.882s-8.875-3.977-8.875-8.882c0-4.907 3.974-8.883 8.875-8.883zm-35.5 142.117c-4.906 0-8.875 3.973-8.875 8.882v26.647h159.75v-26.647c0-4.909-3.969-8.882-8.875-8.882zm167.689 75.969-11.328-22.674h-170.722l-11.328 22.674c-1.369 2.75-1.231 6.02.381 8.639 1.629 2.62 4.49 4.216 7.558 4.216h177.5c3.068 0 5.928-1.596 7.558-4.216 1.612-2.619 1.751-5.889.381-8.639z" fill="url(#SVGID_2_)"/></g></g></g></g></g></g></svg>