<svg viewBox="0 0 400 300" xmlns="http://www.w3.org/2000/svg" xmlns:xlink="http://www.w3.org/1999/xlink"><linearGradient id="a" gradientUnits="userSpaceOnUse" x1="186.47" x2="197.53" y1="203.52" y2="197.6"><stop offset="0" stop-color="#fff" stop-opacity="0"/><stop offset=".99" stop-color="#dc841e"/></linearGradient><linearGradient id="b" x1="147.26" x2="160.04" xlink:href="#a" y1="251.44" y2="242.12"/><linearGradient id="c" x1="267.9" x2="301.3" xlink:href="#a" y1="196.3" y2="168.36"/><path d="m106.52 173.74-45.22 26.1 116.83 67.89 184.41-106.53-126.59-81.46" fill="#f9d8a3"/><path d="m260.02 169.85-68.44 43.52-18.47-13.89 63.65-35.45" fill="url(#a)" opacity=".32"/><path d="m223.97 220.58-63.52 36.51-31.38-17.46 56.06-31.22" fill="url(#b)" opacity=".32"/><path d="m324.61 167.05-57.05 32.35-15.09-8.39 56.07-31.22" fill="url(#c)" opacity=".32"/><path d="m101.46 91.45 130.92-75.35a4 4 0 0 1 6 3.15l8.4 104.4a4 4 0 0 1 -2 3.8l-128.14 72.55a4 4 0 0 1 -5.95-3l-11.2-101.65a4 4 0 0 1 1.97-3.9z" fill="#68e1fd"/><path d="m143.19 210 68.64-40.06a2.37 2.37 0 0 1 3.57 2v22.82a2.37 2.37 0 0 1 -1.2 2.06l-68.67 39.22a2.37 2.37 0 0 1 -3.55-2l-.36-21.28a3.16 3.16 0 0 1 1.57-2.76z" fill="#e2ac00"/><ellipse cx="154.42" cy="217.86" fill="#fff" rx="7.45" ry="6.49" transform="matrix(.59930307 -.80052222 .80052222 .59930307 -112.53 210.9)"/><path d="m167.46 207.78 28-16.14a1.13 1.13 0 0 0 -1.14-1.94l-28 16.14a1.13 1.13 0 0 0 1.14 1.94z" fill="#f2f2f2"/><path d="m168.62 214.34 38.6-22.24a1.13 1.13 0 0 0 -1.14-1.94l-38.6 22.24a1.13 1.13 0 0 0 1.14 1.94z" fill="#f2f2f2"/><path d="m156.27 217.21 68.64-40.06a2.37 2.37 0 0 1 3.57 2v22.85a2.37 2.37 0 0 1 -1.2 2.06l-68.67 39.24a2.37 2.37 0 0 1 -3.55-2l-.36-21.3a3.16 3.16 0 0 1 1.57-2.79z" fill="#f47b56"/><ellipse cx="167.5" cy="225.07" fill="#fff" rx="7.45" ry="6.49" transform="matrix(.59930307 -.80052222 .80052222 .59930307 -113.06 224.26)"/><path d="m180.53 215 28-16.14a1.13 1.13 0 0 0 -1.14-1.94l-27.99 16.08a1.13 1.13 0 0 0 1.14 1.94z" fill="#f2f2f2"/><path d="m181.69 221.55 38.6-22.24a1.13 1.13 0 0 0 -1.14-1.94l-38.6 22.24a1.13 1.13 0 0 0 1.14 1.94z" fill="#f2f2f2"/><path d="m168.46 224.85 68.64-40.06a2.37 2.37 0 0 1 3.57 2v22.82a2.37 2.37 0 0 1 -1.2 2.06l-68.67 39.27a2.37 2.37 0 0 1 -3.55-2l-.36-21.28a3.16 3.16 0 0 1 1.57-2.81z" fill="#68e1fd"/><path d="m168.46 224.85 68.64-40.06a2.37 2.37 0 0 1 3.57 2v22.82a2.37 2.37 0 0 1 -1.2 2.06l-68.67 39.27a2.37 2.37 0 0 1 -3.55-2l-.36-21.28a3.16 3.16 0 0 1 1.57-2.81z" opacity=".15"/><ellipse cx="179.69" cy="232.7" fill="#fff" rx="7.45" ry="6.49" transform="matrix(.59930307 -.80052222 .80052222 .59930307 -114.28 237.08)"/><path d="m192.73 222.63 28-16.14a1.13 1.13 0 0 0 -1.14-1.94l-28 16.14a1.13 1.13 0 0 0 1.14 1.94z" fill="#f2f2f2"/><path d="m193.89 229.19 38.6-22.24a1.13 1.13 0 0 0 -1.14-1.94l-38.6 22.24a1.13 1.13 0 0 0 1.14 1.94z" fill="#f2f2f2"/><path d="m233.02 38.48-40.53 24.09 4.73 58.43 40.73-22.93z" fill="#e2ac00"/><path d="m185.41 66.17-40.54 24.1 4.73 58.42 40.74-22.92z" fill="#f9d8a3"/><path d="m136.52 94.79c0 .3 2.21 24 2.21 24s-26.79 15.24-26.65 15-2.72-23.53-2.72-23.53z" fill="#f9d8a3"/><path d="m140.52 125.84c0 .3 2.21 24 2.21 24s-26.79 15.24-26.65 15-2.72-23.53-2.72-23.53z" fill="#f47b56"/><path d="m308.48 146.77s-3.23 22.08 10.67 22.15c13.35.07 9.91-22.42 9.91-22.42s-9.71-8.44-20.58.27z" fill="#68e1fd"/><path d="m308.48 146.77s-3.23 22.08 10.67 22.15c13.35.07 9.91-22.42 9.91-22.42s-9.71-8.44-20.58.27z" opacity=".15"/><ellipse cx="318.73" cy="146.77" fill="#68e1fd" rx="10.27" ry="4.24"/><ellipse cx="318.73" cy="146.77" opacity=".7" rx="10.27" ry="4.24"/><g fill="#938f05"><path d="m302.56 114.53s-7.16-1.72-4.41-7.68c0 .01 4.92.98 4.41 7.68z"/><path d="m306.91 120.54s-1-5.09 3-7.15c-.01.01 3.19 5.34-3 7.15z"/><path d="m311.38 128.35s-1.19-6.09 3.57-8.55c0 0 3.82 6.38-3.57 8.55z"/><path d="m314.84 136.85s-1.19-6.09 3.57-8.55c0 0 3.82 6.39-3.57 8.55z"/><path d="m306.48 120.68s-2.53-4.53-6.89-3.53c0 0 1 6.13 6.89 3.53z"/><path d="m311 128.54s-3.23-5.3-8.4-3.9c0-.01 1.48 7.29 8.4 3.9z"/><path d="m314.44 136.93s-3.8-4.91-8.78-3c0 .07 2.27 7.13 8.78 3z"/></g><path d="m317.12 151.07h.1a5 5 0 0 1 1 .08.49.49 0 0 0 0-.1 73.42 73.42 0 0 0 -15.44-37.27c-.45-.56-1.23.23-.79.79a72.07 72.07 0 0 1 15.12 36.43z" fill="#42352f"/><path d="m334.07 124.26s6.14-1.47 3.78-6.59c0 0-4.23.84-3.78 6.59z" fill="#938f05"/><path d="m330.33 129.41s.85-4.37-2.56-6.13c0 0-2.77 4.58 2.56 6.13z" fill="#938f05"/><path d="m326.5 136.11s1-5.23-3.06-7.33c0 0-3.28 5.47 3.06 7.33z" fill="#938f05"/><path d="m323.53 143.41s1-5.23-3.06-7.33c0-.01-3.28 5.47 3.06 7.33z" fill="#938f05"/><path d="m330.7 129.53s2.17-3.89 5.91-3c0-.03-.85 5.23-5.91 3z" fill="#938f05"/><path d="m326.82 136.27s2.77-4.54 7.21-3.35c-.03 0-1.27 6.26-7.21 3.35z" fill="#938f05"/><path d="m323.87 143.47s3.26-4.21 7.53-2.53c.01 0-1.94 6.06-7.53 2.53z" fill="#938f05"/><path d="m333.87 123.61a63 63 0 0 0 -12.54 27.39c.32-.05.66-.1 1-.13a61.82 61.82 0 0 1 12.23-26.57c.37-.49-.31-1.17-.69-.69z" fill="#42352f"/><path d="m237 80.85s.41-2.81 0-3.9a23.6 23.6 0 0 1 -.66-4.1 1.14 1.14 0 0 0 -1.32.71c-.39.95.42 3.27.42 3.27s-2.33 4.84 0 7.05 1.56-3.03 1.56-3.03z" fill="#ffac99"/><path d="m252.51 96-15.51-15.15s-3.51 7.62 0 11.11l14.21 14.14" fill="#ce5438"/><path d="m255.4 158.49s2.14 3 2 4.7-2.9 4.66-3.52 5.9-.78 1.78 0 2.69 7.45-4.91 7.6-5.84-.93-4.5-.93-4.5l3 3.74 2.16-1.27-4.57-7.7" fill="#ea7554"/><path d="m254.56 171.86c.18-.18 5.46-2 5.46-2s2.48-2.58 2.41-3.57-1-4.89-1.91-4.85-1 5.22-1 5.22z" fill="#15156d"/><path d="m248.28 163.4-.68 7.9s-1.71 1.25-2.13 1.14-1.67-.43-1.69-.63.6-5.59.43-5.72-2.79 4.11-3.61 4.2-7.09-3.55-6.48-4.94 3.63-.66 5.12-.67a5.24 5.24 0 0 0 4.68-3.43" fill="#ea7554"/><path d="m244.31 142-3.82 20.26s2.21 2.89 10.11 2.52l5.88-14.37" fill="#938f05"/><path d="m242.62 110.21s-5.89 8.6-4.08 22.53c1.61 12.35 13.94 26.89 13.94 26.89s3.69 1.63 11.36-5.64l-8.47-13.47s8.26-19.13-1.49-31.28" fill="#938f05"/><path d="m220.38 100c-3-.25-5-4.31-4.63-9.23s3.1-8.57 6.11-8.32 5 4.31 4.63 9.23-3.1 8.56-6.11 8.32zm1.35-15.91c-2-.17-4 3-4.34 6.82s1.11 7.28 3.14 7.45 4-3 4.34-6.82-1.12-7.29-3.14-7.46z" fill="#f2f2f2" opacity=".55"/><path d="m226 93.7a.86.86 0 0 0 -1.72 0v1.74l-.19-.38a24.83 24.83 0 0 1 -1.5-5c-.21-1.11-1.8-.61-1.66.46a17.27 17.27 0 0 0 .52 2.47l-.17-.07a1.13 1.13 0 0 0 -1.44.8 1.6 1.6 0 0 0 0 .81h-.13a1.25 1.25 0 0 0 -.71 1.97 1.14 1.14 0 0 0 -.41.67 1.66 1.66 0 0 0 .74 1.58c.59.49 1.24 1.13 1.78 1.66.71.69 1.51 1.38 2.18 1.93s1.76-1.28 1.77-1.89a.79.79 0 0 0 1-.8q-.13-2.97-.06-5.95z" fill="#ffac99"/><path d="m222.56 95.54q-.61-1.27-1.12-2.58c-.07-.18-.37-.1-.3.08q.53 1.35 1.16 2.65c.08.18.35.03.26-.15z" fill="#af594a"/><path d="m243.51 91.21a28.34 28.34 0 0 0 -4 4.4c-1.11 1.8-5.57 6.72-7.41 5.24s-5.1-4.31-5.1-4.31-4.64 3.2-4.16 6.52c0 0 4.12 8.43 10.55 6.57s8-4.29 8-4.29l1 5.48s8 2.5 11.67-1.21c0 0 2.43-15.74.64-18.09" fill="#ea7554"/><path d="m242.63 81.68c-.06.18-.2 5.89 1.74 6.44s5.24-.81 6.1-2.62-.37-7.58-3.43-7.91-3.87 2.41-4.41 4.09z" fill="#ffac99"/><path d="m245 82.74c1.28.87.47 2.51-.07 3.57a5.48 5.48 0 0 0 -.57 2.61 3.42 3.42 0 0 1 -.83 2.3 9.1 9.1 0 0 0 -1.11 1.78 25.75 25.75 0 0 0 8.58.11 66.56 66.56 0 0 0 7-.94 4.21 4.21 0 0 0 -.33-1.44c-.55-1.26-1.45-1.93-1.24-3.42a6.92 6.92 0 0 0 .06-3.4c-.41-1.17-1.4-1.71-2.34-2.4a6 6 0 0 1 -.77-.67l-.2-.34a16.66 16.66 0 0 0 -1.72-2.93 5.07 5.07 0 0 0 -2.77-1.42 8.24 8.24 0 0 0 -6.32 1.44s-1.67 1.6-1.14 3.32 2.6 1.09 3.77 1.83z" fill="#f9d8a3"/><path d="m243.52 146.17s6.75 11.68 9 13.46l-1.88 5.14s-7.88-11-7.12-18.6z" fill="#635e00"/><path d="m255.23 139.92a36.8 36.8 0 0 1 -3.52-14.53c0-.4-.64-.4-.62 0a37.59 37.59 0 0 0 3.61 14.84c.16.36.7.05.53-.31z" fill="#635e00"/></svg>