<svg viewBox="0 0 94.11 70.33" xmlns="http://www.w3.org/2000/svg" xmlns:xlink="http://www.w3.org/1999/xlink"><linearGradient id="a" gradientUnits="userSpaceOnUse" x1="19" x2="74.91" y1="42.18" y2="42.18"><stop offset=".04" stop-color="#f27b40"/><stop offset="1" stop-color="#ec697d"/></linearGradient><path d="m46.9 26.91h42.55a3.29 3.29 0 0 1 3.29 3.29v34.32a3.29 3.29 0 0 1 -3.29 3.29h-42.55a3.37 3.37 0 0 1 -3.37-3.37v-34.16a3.37 3.37 0 0 1 3.37-3.37z" fill="#fff"/><path d="m92.43 29.47v34.81c0 1.69.83 3-.85 3h-45.23a3.11 3.11 0 0 1 -3.06-2.46 2.49 2.49 0 0 0 .71.18h43a3 3 0 0 0 3-3.05v-34.86a2.81 2.81 0 0 0 0-.59 3 3 0 0 1 2.43 2.97z" fill="#cec1bc"/><path d="m58.49 12.91-21.84 14.19a2.87 2.87 0 1 1 -3.13-4.82l21.83-14.19a2.88 2.88 0 0 1 3.14 4.82z" fill="#389bf3" opacity=".8"/><path d="m29.3 31.88-14.6 9.49a2.88 2.88 0 0 1 -3.14-4.82l14.61-9.49a2.87 2.87 0 0 1 3.13 4.82z" fill="#ff9d23" opacity=".8"/><path d="m48.23 9.57-21.83 14.2a2.88 2.88 0 0 1 -3.14-4.83l21.84-14.19a2.87 2.87 0 1 1 3.13 4.82z" fill="#aa7dff"/><path d="m19.05 28.54-14.61 9.46a2.88 2.88 0 0 1 -3.13-4.83l14.6-9.49a2.88 2.88 0 0 1 3.14 4.82z" fill="#389bf3"/><path d="m54.82 5.29-.13.08a2.88 2.88 0 1 1 -3.14-4.82l.13-.08a2.88 2.88 0 0 1 3.14 4.82z" fill="#ff9d23"/><path d="m57.38 23.64-21.84 14.19a2.88 2.88 0 1 1 -3.14-4.83l21.84-14.2a2.88 2.88 0 0 1 3.14 4.83z" fill="#389bf3" opacity=".5"/><path d="m28.19 42.61-14.6 9.49a2.88 2.88 0 1 1 -3.14-4.82l14.61-9.49a2.87 2.87 0 0 1 3.13 4.82z" fill="#aa7dff" opacity=".5"/><path d="m64 19.35-.13.09a2.88 2.88 0 1 1 -3.14-4.82l.14-.09a2.87 2.87 0 1 1 3.13 4.82z" fill="#ff9d23" opacity=".5"/><path d="m45.09 27h44.81a3.22 3.22 0 0 1 3.22 3.22v34.49a3.22 3.22 0 0 1 -3.22 3.22h-44.81a1.18 1.18 0 0 1 -1.18-1.18v-38.54a1.18 1.18 0 0 1 1.18-1.21z" fill="none" stroke="#732e54" stroke-miterlimit="10" stroke-width="2"/><path d="m80.08 34.79h13.03" fill="none" stroke="#732e54" stroke-linecap="round" stroke-miterlimit="10" stroke-width="2"/><path d="m43.91 34.79h15.96" fill="none" stroke="#732e54" stroke-linecap="round" stroke-miterlimit="10" stroke-width="2"/><path d="m71.55 36.41h-2.22a3.41 3.41 0 0 1 -3.33-3.41 3.21 3.21 0 0 1 1.09-2.41l1.43-1.4a3.56 3.56 0 0 0 0-5.08l-3.25-3.22a3.7 3.7 0 0 0 -5.1 0l-1.37 1.37a3.31 3.31 0 0 1 -2.48 1.12 3.41 3.41 0 0 1 -3.43-3.31v-2.23a3.64 3.64 0 0 0 -3.57-3.66h-4.42a3.63 3.63 0 0 0 -3.56 3.66v2.22a3.4 3.4 0 0 1 -3.42 3.3 3.24 3.24 0 0 1 -2.42-1.08l-1.41-1.39a3.6 3.6 0 0 0 -2.56-1 3.65 3.65 0 0 0 -2.54 1l-3.28 3.2a3.6 3.6 0 0 0 0 5.08l1.37 1.36a3.33 3.33 0 0 1 1.13 2.47 3.4 3.4 0 0 1 -3.32 3.41h-2.22a3.62 3.62 0 0 0 -3.67 3.59v4.43a3.62 3.62 0 0 0 3.67 3.53h2.22a3.42 3.42 0 0 1 3.32 3.42 3.29 3.29 0 0 1 -1.13 2.46l-1.37 1.36a3.59 3.59 0 0 0 0 5.07l3.29 3.19a3.57 3.57 0 0 0 2.55 1 3.7 3.7 0 0 0 2.55-1l1.41-1.4a3.23 3.23 0 0 1 2.38-1.06 3.41 3.41 0 0 1 3.43 3.31v2.21a3.63 3.63 0 0 0 3.57 3.66h4.43a3.63 3.63 0 0 0 3.56-3.66v-2.22a3.39 3.39 0 0 1 5.9-2.19l1.37 1.37a3.7 3.7 0 0 0 5.1 0l3.25-3.24a3.6 3.6 0 0 0 0-5.08l-1.43-1.41a3.18 3.18 0 0 1 -1.07-2.4 3.4 3.4 0 0 1 3.32-3.41h2.22a3.39 3.39 0 0 0 3.39-3.54v-4.4a3.35 3.35 0 0 0 -3.38-3.59zm-24.44 17.42a11.66 11.66 0 1 1 11.65-11.66 11.66 11.66 0 0 1 -11.65 11.66z" fill="url(#a)"/><path d="m58.48 41.26a11.66 11.66 0 0 1 -11.43 11.66 11.66 11.66 0 1 1 11.43-11.66z" fill="#fff"/><path d="m58.3 42.48a10.7 10.7 0 0 1 -.09 1.39 11.41 11.41 0 0 0 -22.68 0 10.7 10.7 0 0 1 -.09-1.39 11.43 11.43 0 1 1 22.86 0z" fill="#fff"/><path d="m35.52 40.63a10.7 10.7 0 0 1 .09-1.39 11.41 11.41 0 0 0 22.68 0 10.7 10.7 0 0 1 .09 1.39 11.43 11.43 0 1 1 -22.86 0z" fill="#cec1bc"/><g fill="none" stroke-miterlimit="10"><path d="m71.55 35.57h-2.22a3.4 3.4 0 0 1 -3.33-3.41 3.17 3.17 0 0 1 1.09-2.4l1.43-1.4a3.59 3.59 0 0 0 0-5.09l-3.25-3.22a3.7 3.7 0 0 0 -5.1 0l-1.37 1.37a3.29 3.29 0 0 1 -2.48 1.12 3.41 3.41 0 0 1 -3.43-3.31v-2.23a3.63 3.63 0 0 0 -3.57-3.65h-4.42a3.61 3.61 0 0 0 -3.55 3.65v2.22a3.41 3.41 0 0 1 -3.43 3.31 3.29 3.29 0 0 1 -2.42-1.08l-1.41-1.4a3.57 3.57 0 0 0 -2.55-1 3.66 3.66 0 0 0 -2.55 1l-3.28 3.21a3.59 3.59 0 0 0 0 5.07l1.37 1.37a3.33 3.33 0 0 1 1.13 2.46 3.39 3.39 0 0 1 -3.32 3.41h-2.22a3.62 3.62 0 0 0 -3.67 3.55v4.43a3.63 3.63 0 0 0 3.67 3.54h2.22a3.4 3.4 0 0 1 3.32 3.41 3.31 3.31 0 0 1 -1.13 2.5l-1.37 1.36a3.59 3.59 0 0 0 0 5.07l3.29 3.2a3.6 3.6 0 0 0 2.55 1 3.7 3.7 0 0 0 2.55-1l1.41-1.4a3.22 3.22 0 0 1 2.42-1.08 3.41 3.41 0 0 1 3.43 3.31v2.21a3.63 3.63 0 0 0 3.57 3.66h4.43a3.62 3.62 0 0 0 3.55-3.66v-2.21a3.39 3.39 0 0 1 5.91-2.19l1.37 1.37a3.7 3.7 0 0 0 5.1 0l3.21-3.24a3.6 3.6 0 0 0 0-5.08l-1.43-1.4a3.22 3.22 0 0 1 -1.07-2.41 3.4 3.4 0 0 1 3.3-3.41h2.22a3.39 3.39 0 0 0 3.39-3.54v-4.44a3.35 3.35 0 0 0 -3.36-3.55z" stroke="#732e54" stroke-width="2"/><path d="m58.48 41.36a11.34 11.34 0 1 1 -11.43-11.66 11.66 11.66 0 0 1 11.43 11.66z" stroke="#732e54" stroke-linecap="round" stroke-width="2"/><path d="m61 47.65a15.37 15.37 0 0 1 -1 2.15" stroke="#fff" stroke-linecap="round"/><path d="m62.43 41a16.1 16.1 0 0 1 -.32 2.51" opacity=".3" stroke="#fff" stroke-linecap="round"/><path d="m55.28 26.79a14.51 14.51 0 0 1 7.24 9.62" stroke="#fff" stroke-linecap="round"/><path d="m39.54 28a14.61 14.61 0 0 1 11.26-2.78" opacity=".7" stroke="#fff" stroke-linecap="round"/></g></svg>