<svg width="368" height="298" viewBox="0 0 368 298" fill="none" xmlns="http://www.w3.org/2000/svg">
<path d="M182.798 13.6601C182.798 14.2124 183.245 14.6601 183.798 14.6601C258.128 14.6601 319.361 70.7045 327.581 142.881C327.732 144.219 326.667 145.398 325.299 145.398H316.491C315.939 145.398 315.491 145.845 315.491 146.398C315.491 220.728 259.446 281.961 187.314 290.181C185.977 290.333 184.798 289.267 184.798 287.899V279.091C184.798 278.539 184.35 278.091 183.798 278.091C109.423 278.091 48.1905 222.046 40.0147 149.914L40.0147 149.914C39.8627 148.577 40.9287 147.398 42.2964 147.398H51.06C51.6123 147.398 52.06 146.95 52.06 146.398C52.06 72.0231 108.105 10.7907 180.281 2.61484L180.281 2.6148C181.618 2.46283 182.798 3.52878 182.798 4.89648V13.6601Z" fill="#FF788F" stroke="white" stroke-width="2" stroke-linecap="round" stroke-linejoin="round"/>
<path d="M223.986 260.457C223.765 259.926 223.809 259.528 224.03 258.997C225.934 254.526 227.35 249.746 228.235 244.7C228.368 244.037 228.589 243.771 229.032 243.594C231.201 242.576 233.414 241.514 235.582 240.54C236.069 240.319 236.291 240.053 236.335 239.345C236.777 234.122 236.777 228.855 236.335 223.632C236.291 222.969 236.114 222.659 235.627 222.437C233.458 221.464 231.289 220.401 229.076 219.383C228.589 219.162 228.324 218.897 228.191 218.144C227.837 216.108 227.394 214.161 226.863 212.257C233.414 207.477 239.654 202.786 240.186 201.9C241.381 199.953 249.834 186.453 249.834 186.453L249.347 167.643H194.154C193.977 167.598 193.845 167.598 193.668 167.554H188.489C187.56 167.687 186.63 167.908 185.701 167.997C185.081 168.041 184.727 168.351 184.506 169.28C183.842 172.334 183.089 175.344 182.337 178.354C182.248 178.752 181.894 179.195 181.584 179.328C177.955 180.7 174.547 182.603 171.36 185.347C171.006 185.657 170.741 185.613 170.386 185.347C168.306 183.842 166.182 182.426 164.101 180.921C163.659 180.611 163.393 180.655 163.039 181.054C160.074 184.329 157.418 188.091 155.072 192.252C154.762 192.783 154.763 193.181 154.984 193.756C156.046 196.678 157.108 199.643 158.126 202.609C158.259 202.963 158.259 203.582 158.082 203.936C156.179 208.451 154.763 213.231 153.877 218.321C153.789 218.941 153.523 219.206 153.169 219.383C151 220.401 148.832 221.419 146.619 222.393C146.043 222.659 145.822 223.101 145.778 223.898C145.689 225.226 145.556 226.554 145.468 227.926V235.184C145.556 236.557 145.689 237.929 145.778 239.301C145.822 240.009 145.999 240.407 146.53 240.628C148.743 241.602 150.912 242.664 153.081 243.682C153.523 243.86 153.745 244.125 153.877 244.789C154.763 249.835 156.179 254.615 158.082 259.085C158.303 259.572 158.348 259.97 158.126 260.546C157.064 263.467 156.046 266.388 154.984 269.309C154.763 269.929 154.718 270.327 155.072 270.903C157.418 275.063 160.03 278.737 162.995 282.012C163.393 282.455 163.703 282.455 164.146 282.145C166.226 280.64 168.306 279.224 170.386 277.763C170.785 277.498 171.05 277.498 171.405 277.807C174.547 280.463 177.955 282.455 181.496 283.694C182.027 283.871 182.248 284.225 182.381 284.933C183.089 287.987 183.842 291.041 184.55 294.14C184.683 294.804 184.948 295.025 185.391 295.113C187.25 295.423 189.109 295.6 190.968 295.6L249.082 295.423L249.569 274.222L224.96 263.644C224.694 262.405 224.34 261.431 223.986 260.457Z" fill="#FF788F"/>
<path d="M162.42 192.207C162.11 192.739 162.11 193.137 162.332 193.712C163.394 196.633 164.456 199.599 165.474 202.564C165.607 202.918 165.607 203.538 165.43 203.892C163.527 208.407 162.11 213.187 161.225 218.277C161.137 218.897 160.871 219.162 160.517 219.339C158.348 220.357 156.18 221.375 153.966 222.349C153.391 222.614 153.17 223.057 153.126 223.854C153.037 225.182 152.904 226.509 152.816 227.881V235.14C152.904 236.512 153.037 237.884 153.126 239.256C153.17 239.965 153.347 240.363 153.878 240.584C154.011 240.629 154.144 240.673 154.232 240.761H150.027V242.178C148.877 241.646 147.726 241.071 146.575 240.584C146.044 240.363 145.867 239.965 145.823 239.256C145.734 237.884 145.601 236.512 145.513 235.14V227.881C145.601 226.554 145.734 225.226 145.823 223.854C145.867 223.057 146.088 222.614 146.663 222.349C148.832 221.375 151.045 220.313 153.214 219.339C153.612 219.162 153.834 218.897 153.922 218.277C154.807 213.187 156.268 208.407 158.127 203.892C158.26 203.538 158.26 202.918 158.171 202.564C157.153 199.599 156.091 196.633 155.029 193.712C154.807 193.137 154.807 192.739 155.117 192.207C157.463 188.047 160.119 184.285 163.084 181.009C163.483 180.611 163.748 180.567 164.146 180.877C165.474 181.806 166.802 182.736 168.13 183.665C166.05 186.276 164.146 189.153 162.42 192.207Z" fill="white"/>
<path d="M154.231 240.717H157.33V242.133C156.312 241.646 155.294 241.159 154.231 240.717Z" fill="white"/>
<path d="M171.449 180.921C172.423 181.629 173.441 182.337 174.415 183.001C173.397 183.709 172.379 184.461 171.361 185.302C171.007 185.612 170.741 185.568 170.387 185.302C169.635 184.771 168.838 184.196 168.085 183.665C168.794 182.735 169.59 181.85 170.343 181.009C170.741 180.611 171.007 180.611 171.449 180.921Z" fill="white"/>
<path d="M223.986 260.457C223.765 259.926 223.809 259.528 224.03 258.997C225.934 254.526 227.35 249.746 228.235 244.7C228.368 244.037 228.589 243.771 229.032 243.594C231.201 242.576 233.414 241.514 235.582 240.54C236.069 240.319 236.291 240.053 236.335 239.345C236.777 234.122 236.777 228.855 236.335 223.632C236.291 222.969 236.114 222.659 235.627 222.437C233.458 221.464 231.289 220.401 229.076 219.383C228.589 219.162 228.324 218.897 228.191 218.144C227.837 216.108 227.394 214.161 226.863 212.257C233.414 207.477 239.654 202.786 240.186 201.9C241.381 199.953 249.834 186.453 249.834 186.453L249.347 167.643H194.154C193.977 167.598 193.845 167.598 193.668 167.554H188.489C187.56 167.687 186.63 167.908 185.701 167.997C185.081 168.041 184.727 168.351 184.506 169.28C183.842 172.334 183.089 175.344 182.337 178.354C182.248 178.752 181.894 179.195 181.584 179.328C177.955 180.7 174.547 182.603 171.36 185.347C171.006 185.657 170.741 185.613 170.386 185.347C168.306 183.842 166.182 182.426 164.101 180.921C163.659 180.611 163.393 180.655 163.039 181.054C160.074 184.329 157.418 188.091 155.072 192.252C154.762 192.783 154.763 193.181 154.984 193.756C156.046 196.678 157.108 199.643 158.126 202.609C158.259 202.963 158.259 203.582 158.082 203.936C156.179 208.451 154.763 213.231 153.877 218.321C153.789 218.941 153.523 219.206 153.169 219.383C151 220.401 148.832 221.419 146.619 222.393C146.043 222.659 145.822 223.101 145.778 223.898C145.689 225.226 145.556 226.554 145.468 227.926V235.184C145.556 236.557 145.689 237.929 145.778 239.301C145.822 240.009 145.999 240.407 146.53 240.628C148.743 241.602 150.912 242.664 153.081 243.682C153.523 243.86 153.745 244.125 153.877 244.789C154.763 249.835 156.179 254.615 158.082 259.085C158.303 259.572 158.348 259.97 158.126 260.546C157.064 263.467 156.046 266.388 154.984 269.309C154.763 269.929 154.718 270.327 155.072 270.903C157.418 275.063 160.03 278.737 162.995 282.012C163.393 282.455 163.703 282.455 164.146 282.145C166.226 280.64 168.306 279.224 170.386 277.763C170.785 277.498 171.05 277.498 171.405 277.807C174.547 280.463 177.955 282.455 181.496 283.694C182.027 283.871 182.248 284.225 182.381 284.933C183.089 287.987 183.842 291.041 184.55 294.14C184.683 294.804 184.948 295.025 185.391 295.113C187.25 295.423 189.109 295.6 190.968 295.6L249.082 295.423L249.569 274.222L224.96 263.644C224.694 262.405 224.34 261.431 223.986 260.457Z" stroke="black" stroke-width="1.2" stroke-miterlimit="10" stroke-linecap="round" stroke-linejoin="round"/>
<path d="M145.777 240.097H202.785" stroke="black" stroke-width="1.2" stroke-miterlimit="10" stroke-linecap="round" stroke-linejoin="round"/>
<path d="M169.413 266.211L167.067 273.824C167.067 273.824 159.72 295.379 147.725 295.379H131.703C128.605 295.379 127.542 292.28 128.472 289.315C129.534 285.995 133.473 282.454 140.334 281.614C144.229 273.735 137.988 265.193 137.988 265.193L157.817 247.931C162.42 254.482 169.413 266.211 169.413 266.211Z" fill="white"/>
<path d="M169.413 266.211L167.067 273.824C167.067 273.824 159.72 295.379 147.725 295.379H131.703C128.605 295.379 127.542 292.28 128.472 289.315C129.534 285.995 133.473 282.454 140.334 281.614C144.229 273.735 137.988 265.193 137.988 265.193L157.817 247.931C162.42 254.482 169.413 266.211 169.413 266.211Z" stroke="black" stroke-width="1.2" stroke-miterlimit="10" stroke-linecap="round" stroke-linejoin="round"/>
<path d="M140.333 281.613C141.484 281.481 142.723 281.392 144.007 281.436" stroke="black" stroke-width="1.2" stroke-miterlimit="10" stroke-linecap="round" stroke-linejoin="round"/>
<path d="M128.516 289.315C128.516 289.315 143.918 290.51 150.956 288.031C156.267 286.172 161.047 275.018 163.172 269.22" stroke="black" stroke-width="1.2" stroke-miterlimit="10" stroke-linecap="round" stroke-linejoin="round"/>
<path d="M159.72 295.378H121.125" stroke="black" stroke-width="1.2" stroke-miterlimit="10" stroke-linecap="round" stroke-linejoin="round"/>
<path d="M141.617 275.727C141.617 275.727 145.202 273.824 150.115 274.886" stroke="black" stroke-width="1.2" stroke-miterlimit="10" stroke-linecap="round" stroke-linejoin="round"/>
<path d="M141.485 272.319C141.485 272.319 145.07 270.416 149.983 271.478" stroke="black" stroke-width="1.2" stroke-miterlimit="10" stroke-linecap="round" stroke-linejoin="round"/>
<path d="M251.384 201.679C240.584 201.679 231.821 215.001 231.821 231.466C231.821 247.931 240.584 261.254 251.384 261.254C262.184 261.254 270.947 247.931 270.947 231.466C270.947 215.001 262.184 201.679 251.384 201.679Z" fill="#FF788F" stroke="black" stroke-width="1.2" stroke-miterlimit="10" stroke-linecap="round" stroke-linejoin="round"/>
<path d="M294.184 223.588C294.14 222.924 293.962 222.614 293.476 222.393C291.307 221.419 289.138 220.357 286.925 219.339C286.438 219.117 286.173 218.852 286.04 218.1C285.155 213.054 283.738 208.362 281.835 203.892C281.614 203.361 281.614 202.962 281.791 202.431C282.853 199.51 283.871 196.545 284.933 193.579C285.155 193.048 285.11 192.65 284.845 192.163C282.499 187.958 279.799 184.196 276.789 180.876C276.435 180.478 276.17 180.522 275.771 180.788C273.647 182.293 271.522 183.798 269.398 185.214C269.177 185.391 268.734 185.347 268.513 185.17C265.282 182.47 261.829 180.522 258.2 179.15C257.934 179.062 257.625 178.619 257.536 178.221C256.784 175.167 256.031 172.113 255.367 169.059C255.19 168.262 254.88 167.952 254.305 167.908C253.375 167.819 252.402 167.642 251.472 167.465H246.294C245.364 167.598 244.435 167.819 243.505 167.908C242.886 167.952 242.532 168.262 242.31 169.192C241.646 172.245 240.894 175.255 240.142 178.265C240.053 178.663 239.699 179.106 239.389 179.239C235.76 180.611 232.352 182.514 229.165 185.258C228.811 185.568 228.545 185.524 228.191 185.258C226.111 183.753 223.986 182.337 221.906 180.832C221.464 180.522 221.198 180.566 220.844 180.965C217.878 184.24 215.223 188.002 212.877 192.163C212.567 192.694 212.567 193.092 212.788 193.668C213.851 196.589 214.913 199.554 215.931 202.52C216.064 202.874 216.064 203.493 215.887 203.848C213.984 208.362 212.567 213.142 211.682 218.232C211.593 218.852 211.328 219.117 210.974 219.295C208.805 220.313 206.636 221.331 204.423 222.304C203.848 222.57 203.627 223.012 203.582 223.809C203.494 225.137 203.361 226.465 203.272 227.837V235.096C203.361 236.468 203.494 237.84 203.582 239.212C203.627 239.92 203.804 240.318 204.335 240.54C206.548 241.513 208.717 242.576 210.885 243.594C211.328 243.771 211.549 244.036 211.682 244.7C212.567 249.746 213.984 254.526 215.887 258.996C216.108 259.483 216.152 259.882 215.931 260.457C214.869 263.378 213.851 266.299 212.788 269.221C212.567 269.84 212.523 270.239 212.877 270.814C215.223 274.974 217.834 278.648 220.8 281.923C221.198 282.366 221.508 282.366 221.95 282.056C224.031 280.551 226.111 279.135 228.191 277.674C228.59 277.409 228.855 277.409 229.209 277.719C232.352 280.374 235.76 282.366 239.301 283.605C239.832 283.782 240.053 284.136 240.186 284.845C240.894 287.899 241.646 290.952 242.355 294.051C242.487 294.715 242.753 294.936 243.196 295.024C246.913 295.644 250.676 295.644 254.393 295.024C254.925 294.936 255.102 294.626 255.279 293.962C255.987 290.908 256.739 287.854 257.447 284.756C257.58 284.181 257.802 283.827 258.244 283.694C259.395 283.295 260.501 282.853 261.564 282.277C263.954 281.082 266.3 279.578 268.513 277.719C268.734 277.542 269.177 277.542 269.442 277.719C271.522 279.135 273.603 280.596 275.683 282.056C275.816 282.145 275.904 282.189 276.037 282.233C276.302 282.322 276.568 282.233 276.834 281.923C279.799 278.604 282.455 274.886 284.801 270.725C285.066 270.194 285.066 269.84 284.889 269.309C283.827 266.388 282.809 263.422 281.747 260.457C281.525 259.926 281.569 259.527 281.791 258.996C283.694 254.526 285.11 249.746 285.996 244.7C286.128 244.036 286.35 243.771 286.792 243.594C288.961 242.576 291.174 241.513 293.343 240.54C293.83 240.318 294.051 240.053 294.095 239.345C294.626 234.078 294.626 228.855 294.184 223.588ZM251.384 261.254C240.584 261.254 231.821 247.931 231.821 231.466C231.821 215.001 240.584 201.679 251.384 201.679C262.183 201.679 270.947 215.001 270.947 231.466C270.947 247.931 262.183 261.254 251.384 261.254Z" fill="#FF788F" stroke="black" stroke-width="1.2" stroke-miterlimit="10" stroke-linecap="round" stroke-linejoin="round"/>
<path d="M182.824 236.247C182.824 236.247 186.099 242.31 179.15 249.215C172.246 256.12 162.685 262.936 166.226 273.071C167.554 276.878 171.36 278.206 176.008 278.073C192.783 278.073 206.813 258.067 211.284 248.684C212.036 247.09 212.124 245.276 211.638 243.638C209.336 236.335 207.477 230.625 207.477 230.625L182.824 236.247Z" fill="white" stroke="black" stroke-width="1.2" stroke-miterlimit="10" stroke-linecap="round" stroke-linejoin="round"/>
<path d="M165.961 265.459C165.695 267.008 167.156 271.213 175.919 271.213C188.047 271.213 200.351 261.343 208.362 247.622" stroke="black" stroke-width="1.2" stroke-miterlimit="10" stroke-linecap="round" stroke-linejoin="round"/>
<path d="M193.048 167.465L197.961 167.864H228.988C232.706 164.057 239.079 153.169 234.697 125.639L222.968 118.115L176.804 120.328L150.646 133.562C131.083 143.565 145.689 174.768 161.756 202.387C169.413 215.488 177.38 227.793 182.204 236.6C183.355 238.681 185.435 240.097 187.781 240.318C195.438 240.982 203.228 237.751 208.274 231.82C208.274 231.82 200.794 192.605 194.376 172.688C194.996 172.644 193.535 169.236 193.048 167.465Z" fill="black"/>
<path d="M109.705 148.92C109.705 148.92 69.9151 159.631 90.1865 194.464C110.679 229.696 123.249 245.231 134.713 263.024C141.706 273.868 161.667 252.933 159.587 249.525C158.746 248.197 139.847 201.015 129.667 186.675C132.367 186.453 150.691 178.752 150.691 178.752L152.682 145.202L148.92 133.65L109.705 148.92Z" fill="black"/>
<path d="M151.974 185.79C140.777 163.527 135.111 141.529 150.647 133.606L166.536 124.843" stroke="#FF788F" stroke-width="1.2" stroke-miterlimit="10" stroke-linecap="round" stroke-linejoin="round"/>
<path d="M148.079 113.91C144.627 115.504 141.484 116.92 138.961 118.159C131.437 121.7 124.621 126.613 119 132.721C113.688 138.431 108.864 145.822 109.13 153.435C109.572 166.536 120.505 167.908 121.611 167.997V167.952C124.311 168.926 126.524 168.661 126.657 167.997C127.144 168.218 127.675 168.351 128.25 168.439C132.809 169.236 130.419 164.146 129.711 163.217C130.64 163.659 131.703 163.969 132.942 164.146C134.358 164.323 134.978 162.243 133.252 160.03C127.454 151.974 140.201 135.554 150.69 133.562L156.533 132.942L148.079 113.91Z" fill="#FF788F"/>
<path d="M149.23 116.477C147.548 117.274 145.999 117.982 144.627 118.646C137.102 122.187 130.286 127.1 124.665 133.208C119.354 138.962 114.529 146.309 114.795 153.922C115.149 165.252 123.426 167.82 126.347 168.351C125.639 168.705 123.78 168.749 121.611 167.952V167.997C120.505 167.908 109.572 166.536 109.13 153.435C108.864 145.822 113.688 138.431 119 132.721C124.665 126.613 131.481 121.744 138.961 118.159C141.484 116.964 144.627 115.504 148.079 113.91L149.23 116.477Z" fill="white"/>
<path d="M221.286 67.6582C206.769 33.8431 177.026 33.3119 162.154 35.4364C160.649 35.6577 159.277 35.879 158.126 36.1446C156.223 36.543 154.807 36.897 154.01 37.1183C153.523 37.2511 153.258 37.3396 153.258 37.3396C147.017 42.6509 139.537 46.0147 132.721 50.4851C131.127 51.503 129.578 52.6096 128.073 53.8489C127.719 54.1144 127.365 54.4242 127.011 54.7341C96.3386 83.1051 135.908 119.443 135.908 119.443L132.101 121.435C132.986 121.081 133.827 120.859 134.624 120.638C146.53 117.938 151.487 131.039 150.558 133.607C157.817 130.862 188.843 129.49 188.843 129.49C188.843 129.49 195.173 131.88 200.838 135.82C212.213 129.933 230.271 125.905 234.609 125.684C233.281 98.9947 224.252 74.9169 221.286 67.6582ZM163.261 66.95C162.066 69.7827 160.295 72.4383 157.728 74.1202C155.559 75.5808 152.727 76.2005 150.248 75.4923C151.886 72.2613 151.797 68.1893 150.248 64.8698C149.761 63.8518 149.186 62.9223 148.478 62.0371C154.232 57.3455 150.956 46.8114 151.089 39.5527C151.133 39.5084 157.507 39.9068 157.551 39.8625C158.126 39.6855 158.658 39.4642 159.189 39.1986C165.474 46.7672 167.111 57.9208 163.261 66.95Z" fill="white"/>
<path d="M145.91 63.984C146.928 63.5414 147.902 62.966 148.787 62.2135C152.771 58.9825 155.426 53.0959 156.71 47.3862C156.71 47.3862 157.993 56.2826 150.248 68.4985C148.433 66.8609 145.91 63.984 145.91 63.984Z" fill="black" stroke="black" stroke-width="1.2" stroke-miterlimit="10" stroke-linecap="round" stroke-linejoin="round"/>
<path d="M156.754 47.4306C155.471 53.096 152.815 59.0269 148.832 62.2579C146.53 64.1168 143.83 65.0906 140.732 64.648C136.881 64.0726 133.34 60.7088 130.375 56.3712C129.888 55.6631 129.446 54.9549 128.959 54.2025C123.78 45.7929 120.549 35.3474 120.372 34.7721V34.7278C120.372 34.7278 123.028 29.5936 137.811 22.2906C146.22 18.1301 152.461 23.0872 155.736 29.0624C156.223 29.9034 156.622 30.7886 156.931 31.6295C157.684 33.4885 158.082 35.3474 158.215 36.9408C158.303 38.4899 158.126 39.7735 157.64 40.6145L156.754 47.4306Z" fill="#FF788F"/>
<path d="M140.82 64.6485C140.776 64.6485 140.776 64.6485 140.732 64.6485C136.881 64.0731 133.34 60.7093 130.375 56.3717C129.888 55.6636 129.446 54.9554 128.959 54.203C123.78 45.7934 120.549 35.3479 120.372 34.7725V34.7283C120.372 34.7283 121.7 32.1612 127.764 28.0449C128.383 31.9841 130.463 45.1295 133.827 54.3357C134.181 55.3095 134.314 53.9817 134.713 54.9111C136.394 59.0274 138.43 62.524 140.82 64.6485Z" fill="white"/>
<path d="M156.754 47.4306C155.471 53.096 152.815 59.0269 148.832 62.2579C146.53 64.1168 143.83 65.0906 140.732 64.648C136.881 64.0726 133.34 60.7088 130.375 56.3712C129.888 55.6631 129.446 54.9549 128.959 54.2025C123.78 45.7929 120.549 35.3474 120.372 34.7721V34.7278C120.372 34.7278 123.028 29.5936 137.811 22.2906C146.22 18.1301 152.461 23.0872 155.736 29.0624C156.223 29.9034 156.622 30.7886 156.931 31.6295C157.684 33.4885 158.082 35.3474 158.215 36.9408C158.303 38.4899 158.126 39.7735 157.64 40.6145" stroke="black" stroke-width="1.2" stroke-miterlimit="10" stroke-linecap="round" stroke-linejoin="round"/>
<path d="M120.328 34.8165C127.985 29.1512 134.27 26.9381 144.008 27.0709C144.229 27.0709 144.45 27.1594 144.627 27.3365C146.309 29.2397 148.124 32.692 149.407 35.4804C150.381 35.5689 150.912 35.6575 151.842 35.5247C153.524 34.6837 155.515 32.3379 157.153 31.497C157.728 30.3905 157.728 31.8068 158.304 30.7003C156.887 24.5923 153.789 15.9172 148.434 12.6862C143.078 9.45518 136.351 8.61423 130.331 10.2961C127.454 11.0928 124.754 12.4649 121.922 13.4386C119.089 14.4124 115.991 14.9435 113.114 14.1025C113.069 16.1385 113.999 18.1745 115.592 19.4138C113.689 19.4581 111.874 18.8384 110.281 17.7762C108.688 16.7139 107.448 15.1205 106.74 13.3059C106.563 17.9532 107.271 22.5563 109.661 26.5398C112.051 30.5232 115.858 33.6215 120.328 34.8165Z" fill="black" stroke="black" stroke-width="1.2" stroke-miterlimit="10" stroke-linecap="round" stroke-linejoin="round"/>
<path d="M133.606 44.6421C133.606 44.6421 129.932 48.2715 130.906 50.3517C131.88 52.432 136.616 48.8911 136.616 48.8911" stroke="black" stroke-width="1.2" stroke-miterlimit="10" stroke-linecap="round" stroke-linejoin="round"/>
<path d="M159.986 37.3836C159.897 37.7377 159.809 38.0918 159.72 38.4016C159.278 39.5967 158.569 40.5704 157.728 41.2786C157.33 41.5884 156.932 41.8097 156.489 41.9867C156.179 42.1195 155.87 42.1638 155.56 42.208L153.834 39.1541L151.886 35.7017C151.886 35.4804 151.842 35.2591 151.842 35.0821C151.842 32.9576 152.904 30.8773 154.409 30.1249C154.586 30.0364 154.807 29.9478 155.029 29.9036C155.692 29.7265 156.401 29.7708 157.065 30.0364C157.905 30.3462 158.658 30.9658 159.189 31.8511C160.074 33.2674 160.384 35.4362 159.986 37.3836Z" fill="#FF788F"/>
<path d="M151.841 35.6134C151.841 35.3921 151.797 35.1707 151.797 34.9937C151.797 32.8692 152.859 30.7889 154.364 30.0365C154.541 29.948 154.762 29.8595 154.984 29.8152C155.648 29.6382 156.356 29.6824 157.02 29.948C157.861 30.2578 158.613 30.8775 159.144 31.7627C160.118 33.3118 160.383 35.4806 159.985 37.3838C159.897 37.7379 159.808 38.0919 159.72 38.4018C159.277 39.5968 158.569 40.5705 157.728 41.2787C157.329 41.5885 156.931 41.8098 156.489 41.9869C156.179 42.1197 155.869 42.1639 155.559 42.2082" stroke="black" stroke-width="1.2" stroke-miterlimit="10" stroke-linecap="round" stroke-linejoin="round"/>
<path d="M150.248 75.4922C149.805 75.3595 149.407 75.2267 149.009 75.0054" stroke="black" stroke-width="1.2" stroke-miterlimit="10" stroke-linecap="round" stroke-linejoin="round"/>
<path d="M150.248 75.4917C150.071 75.8901 149.142 77.0851 148.256 76.8196C146.663 76.3327 146.929 73.1017 146.84 71.7739C146.663 69.0297 145.247 70.0919 145.07 70.446C144.273 71.9066 144.273 73.8984 144.627 75.4917C145.07 77.3949 146.043 79.1211 147.017 80.803C147.46 81.5997 147.947 82.3521 148.389 83.1488C141.794 91.7354 129.932 89.124 128.737 84.7865C128.737 84.7422 128.737 84.7422 128.693 84.698C127.808 81.2899 127.1 78.4572 126.701 76.6425C125.639 71.464 125.241 65.9757 126.303 60.7972C126.746 58.7612 127.941 57.0351 129.534 55.9728C131.172 54.8663 133.208 54.3794 135.288 54.7778C137.28 55.1319 139.227 55.7072 141.086 56.5039C143.963 57.7432 146.574 59.6022 148.522 62.0365C149.23 62.9217 149.806 63.8512 150.292 64.8692C151.797 68.233 151.93 72.2607 150.248 75.4917Z" fill="#FF788F"/>
<path d="M128.605 68.2773C129.357 63.3201 131.747 57.7875 136.041 54.9548C135.775 54.9105 135.554 54.822 135.288 54.7778C133.208 54.3794 131.172 54.8663 129.534 55.9728C127.941 57.0351 126.746 58.7612 126.303 60.7972C125.241 65.9314 125.595 71.464 126.702 76.6425C127.056 78.4572 127.764 81.2899 128.693 84.698C128.693 84.7422 128.693 84.7422 128.738 84.7865C128.959 85.5389 129.49 86.2028 130.242 86.8225C128.251 81.0243 127.72 74.2082 128.605 68.2773Z" fill="white"/>
<path d="M184.86 58.6729C184.904 74.7837 183.576 84.2998 182.824 100.057" stroke="black" stroke-width="1.2" stroke-miterlimit="10" stroke-linecap="round" stroke-linejoin="round"/>
<path d="M188.932 129.49C189.463 129.667 190.879 130.287 195.615 133.208C209.247 124.312 215.488 106.032 217.347 90.585C215.09 103.996 209.026 113.512 204.644 119C197.341 128.206 188.932 129.49 188.932 129.49Z" fill="black"/>
<path d="M217.436 72.4824H217.215C217.303 77.2626 217.126 83.7246 216.285 90.7178C217.215 85.2737 217.657 79.21 217.436 72.4824Z" fill="black"/>
<path d="M188.932 129.49C188.932 129.49 215.267 143.653 219.693 146.707" stroke="#FF788F" stroke-width="1.2" stroke-miterlimit="10" stroke-linecap="round" stroke-linejoin="round"/>
<path d="M128.737 84.8311C128.737 84.7869 128.737 84.7868 128.693 84.7426C128.693 84.6983 128.649 84.6097 128.649 84.5654" stroke="black" stroke-width="1.2" stroke-miterlimit="10" stroke-linecap="round" stroke-linejoin="round"/>
<path d="M144.538 71.9068C144.538 71.9068 145.379 67.3037 147.813 68.1446" stroke="black" stroke-width="1.2" stroke-miterlimit="10" stroke-linecap="round" stroke-linejoin="round"/>
<path d="M138.342 118.16C135.51 109.573 128.295 84.2117 126.746 76.6874C125.684 71.5089 125.285 66.0206 126.348 60.8421C126.79 58.8061 127.985 57.08 129.579 56.0177C131.216 54.9112 133.252 54.4243 135.332 54.8227C137.324 55.1768 139.272 55.7522 141.131 56.5489C144.008 57.7881 146.619 59.6471 148.566 62.0814C149.275 62.9666 149.85 63.8961 150.337 64.9141C151.886 68.2337 151.974 72.3056 150.337 75.5367C150.16 75.935 149.23 77.13 148.345 76.8645C146.752 76.3776 147.017 73.1466 146.929 71.8188C146.752 69.0746 145.335 70.1369 145.158 70.4909C144.362 71.9516 144.362 73.9433 144.716 75.5367C145.158 77.4399 146.132 79.166 147.106 80.8479C152.373 89.9214 157.286 98.3751 162.553 107.449" stroke="black" stroke-width="1.2" stroke-miterlimit="10" stroke-linecap="round" stroke-linejoin="round"/>
<path d="M148.079 113.91C159.764 108.599 175.476 101.916 186.497 98.9502" stroke="black" stroke-width="1.2" stroke-miterlimit="10" stroke-linecap="round" stroke-linejoin="round"/>
<path d="M148.079 113.91C144.627 115.503 141.485 116.919 138.962 118.159C131.437 121.7 124.621 126.612 119 132.72C113.689 138.43 108.865 145.822 109.13 153.434C109.573 166.536 120.505 167.908 121.612 167.996" stroke="black" stroke-width="1.2" stroke-miterlimit="10" stroke-linecap="round" stroke-linejoin="round"/>
<path d="M113.025 150.691C112.494 153.435 112.538 156.932 113.512 159.499C117.186 169.148 126.392 169.325 126.613 167.997" stroke="black" stroke-width="1.2" stroke-miterlimit="10" stroke-linecap="round" stroke-linejoin="round"/>
<path d="M129.623 163.261C130.375 164.19 132.721 169.236 128.162 168.483C126.613 168.218 125.197 167.465 124.09 166.359C120.151 162.597 117.628 157.33 118.425 149.982" stroke="black" stroke-width="1.2" stroke-miterlimit="10" stroke-linecap="round" stroke-linejoin="round"/>
<path d="M123.648 149.54C123.648 149.54 122.054 162.685 132.81 164.19C134.226 164.367 134.846 162.287 133.119 160.074C127.321 152.018 140.068 135.598 150.558 133.606L156.401 132.986" stroke="black" stroke-width="1.2" stroke-miterlimit="10" stroke-linecap="round" stroke-linejoin="round"/>
<path d="M156.445 132.986L188.888 129.49C188.888 129.49 220.756 122.585 217.347 70.4019" stroke="black" stroke-width="1.2" stroke-miterlimit="10" stroke-linecap="round" stroke-linejoin="round"/>
<path d="M136.66 57.4775C137.368 57.6546 138.165 57.9201 138.962 58.2742" stroke="black" stroke-width="1.2" stroke-miterlimit="10" stroke-linecap="round" stroke-linejoin="round"/>
<path d="M134.58 57.124C135.199 57.1683 135.863 57.3011 136.66 57.4781" stroke="black" stroke-width="1.2" stroke-miterlimit="10" stroke-linecap="round" stroke-linejoin="round"/>
<path d="M132.189 57.2125C132.189 57.2125 133.075 56.9912 134.624 57.124" stroke="black" stroke-width="1.2" stroke-miterlimit="10" stroke-linecap="round" stroke-linejoin="round"/>
<path d="M270.947 231.467C270.947 247.932 262.183 261.254 251.384 261.254C245.364 261.254 239.965 257.094 236.379 250.543C239.212 245.364 240.894 238.725 240.894 231.467C240.894 224.208 239.168 217.569 236.379 212.39C239.965 205.84 245.364 201.679 251.384 201.679C262.183 201.679 270.947 215.002 270.947 231.467Z" fill="black"/>
<path d="M221.596 180.7H195.306" stroke="black" stroke-width="1.2" stroke-miterlimit="10" stroke-linecap="round" stroke-linejoin="round"/>
<path d="M196.191 176.495C196.191 176.495 191.012 159.676 183.045 150.957" stroke="#FF788F" stroke-width="1.2" stroke-miterlimit="10" stroke-linecap="round" stroke-linejoin="round"/>
<path d="M134.359 189.021C134.359 189.021 125.374 182.249 116.521 180.168" stroke="#FF788F" stroke-width="1.2" stroke-miterlimit="10" stroke-linecap="round" stroke-linejoin="round"/>
<path d="M181.541 283.561L220.711 282.322" stroke="black" stroke-width="1.2" stroke-miterlimit="10" stroke-linecap="round" stroke-linejoin="round"/>
<path d="M212.124 270.77H199.599" stroke="black" stroke-width="1.2" stroke-miterlimit="10" stroke-linecap="round" stroke-linejoin="round"/>
<path d="M239.433 284.756L182.824 286.349" stroke="black" stroke-width="1.2" stroke-miterlimit="10" stroke-linecap="round" stroke-linejoin="round"/>
<path d="M212.434 192.915L155.072 192.207" stroke="black" stroke-width="1.2" stroke-miterlimit="10" stroke-linecap="round" stroke-linejoin="round"/>
<path d="M216.019 203.759L158.436 203.051" stroke="black" stroke-width="1.2" stroke-miterlimit="10" stroke-linecap="round" stroke-linejoin="round"/>
<path d="M276.435 282.233L261.608 282.322C263.998 281.127 266.565 279.622 268.778 277.763C268.999 277.586 269.442 277.586 269.708 277.763C271.788 279.179 273.824 280.552 275.904 282.012C276.037 282.145 276.302 282.189 276.435 282.233Z" fill="black" stroke="black" stroke-width="1.2" stroke-miterlimit="10" stroke-linecap="round" stroke-linejoin="round"/>
<path d="M275.506 282.189H275.284" stroke="black" stroke-width="1.2" stroke-miterlimit="10" stroke-linecap="round" stroke-linejoin="round"/>
<path d="M276.479 180.699C276.346 180.699 276.169 180.788 275.992 180.921C273.868 182.425 271.743 183.93 269.619 185.347C269.398 185.524 268.955 185.479 268.734 185.302C266.167 183.178 263.467 181.496 260.678 180.212L276.479 180.699Z" fill="black" stroke="black" stroke-width="1.2" stroke-miterlimit="10" stroke-linecap="round" stroke-linejoin="round"/>
<path d="M146.619 222.349H203.626" stroke="black" stroke-width="1.2" stroke-miterlimit="10" stroke-linecap="round" stroke-linejoin="round"/>
<path d="M179.15 249.259C179.15 249.259 185.081 246.294 191.986 250.631" stroke="black" stroke-width="1.2" stroke-miterlimit="10" stroke-linecap="round" stroke-linejoin="round"/>
<path d="M182.205 245.939C182.205 245.939 188.578 243.151 195.483 247.489" stroke="black" stroke-width="1.2" stroke-miterlimit="10" stroke-linecap="round" stroke-linejoin="round"/>
<path d="M154.099 264.352C154.364 266.123 155.958 267.539 157.728 267.672C159.499 267.761 161.225 266.521 161.756 264.839C162.287 263.157 161.49 261.166 159.941 260.236C156.799 258.333 153.612 260.989 154.099 264.352Z" stroke="black" stroke-width="1.2" stroke-miterlimit="10" stroke-linecap="round" stroke-linejoin="round"/>
<path d="M202.785 242.266C202.697 244.036 203.715 245.541 204.998 245.63C206.282 245.718 207.787 244.479 208.406 242.708C209.026 240.982 208.716 238.946 207.742 238.017C205.662 236.158 202.918 238.813 202.785 242.266Z" stroke="black" stroke-width="1.2" stroke-miterlimit="10" stroke-linecap="round" stroke-linejoin="round"/>
</svg>
