<?xml version="1.0" encoding="UTF-8" standalone="no"?>
<svg width="270.933mm" height="22.7542mm"
 xmlns="http://www.w3.org/2000/svg" xmlns:xlink="http://www.w3.org/1999/xlink"  version="1.2" baseProfile="tiny">
<desc>Created by EvoPdf</desc>
<defs>
</defs>
<g fill="none" stroke="black" stroke-width="1" fill-rule="evenodd" stroke-linecap="square" stroke-linejoin="bevel" >

<g fill="#000000" fill-opacity="1" stroke="#000000" stroke-opacity="1" stroke-width="1" stroke-linecap="square" stroke-linejoin="miter" stroke-miterlimit="2" transform="matrix(1,0,0,1,0,0)"
>
</g>

<g fill="#000000" fill-opacity="1" stroke="#000000" stroke-opacity="1" stroke-width="1" stroke-linecap="square" stroke-linejoin="miter" stroke-miterlimit="2" transform="matrix(1,0,0,1,0,0)"
>
</g>

<g fill="#000000" fill-opacity="1" stroke="#000000" stroke-opacity="1" stroke-width="1" stroke-linecap="square" stroke-linejoin="miter" stroke-miterlimit="2" transform="matrix(1,0,0,1,0,0)"
>
</g>

<g fill="#000000" fill-opacity="1" stroke="#000000" stroke-opacity="1" stroke-width="1" stroke-linecap="square" stroke-linejoin="miter" stroke-miterlimit="2" transform="matrix(1,0,0,1,0,0)"
>
</g>

<g fill="#000000" fill-opacity="1" stroke="#000000" stroke-opacity="1" stroke-width="1" stroke-linecap="square" stroke-linejoin="miter" stroke-miterlimit="2" transform="matrix(1.07692,0,0,1.07692,8,8)"
>
</g>

<g fill="#007cba" fill-opacity="1" stroke="none" transform="matrix(1.07692,0,0,1.07692,8,8)"
>
<path vector-effect="none" fill-rule="nonzero" d="M39.9,40.6 C32.1,40.6 25.5,34.7 24.6,26.9 C24.1,22.8 25.3,18.8 27.8,15.5 C30.4,12.3 34,10.2 38.1,9.7 C38.7,9.6 39.3,9.6 39.9,9.6 C47.7,9.6 54.3,15.5 55.2,23.3 C55.7,27.4 54.5,31.4 52,34.7 C49.5,38 45.8,40 41.7,40.5 C41.1,40.6 40.5,40.6 39.9,40.6 L39.9,40.6 M39.9,11.2 C39.4,11.2 38.8,11.2 38.3,11.3 C34.6,11.7 31.3,13.6 29,16.5 C26.7,19.4 25.6,23.1 26.1,26.8 C26.9,33.8 32.9,39.1 39.9,39.1 C40.4,39.1 41,39.1 41.5,39 C45.2,38.6 48.5,36.7 50.8,33.8 C53.1,30.9 54.2,27.2 53.7,23.5 C52.9,16.5 47,11.2 39.9,11.2 L39.9,11.2"/>
</g>

<g fill="#000000" fill-opacity="1" stroke="#000000" stroke-opacity="1" stroke-width="1" stroke-linecap="square" stroke-linejoin="miter" stroke-miterlimit="2" transform="matrix(1.07692,0,0,1.07692,8,8)"
>
</g>

<g fill="#007cba" fill-opacity="1" stroke="none" transform="matrix(1.07692,0,0,1.07692,8,8)"
>
<path vector-effect="none" fill-rule="nonzero" d="M39.9,36.6 C34.1,36.6 29.2,32.2 28.5,26.5 C28.1,23.5 29,20.5 30.9,18.1 C32.8,15.7 35.5,14.2 38.6,13.8 C39,13.7 39.5,13.7 39.9,13.7 C45.7,13.7 50.6,18.1 51.3,23.8 C51.7,26.8 50.8,29.8 48.9,32.2 C47,34.6 44.3,36.1 41.2,36.5 C40.8,36.6 40.3,36.6 39.9,36.6 L39.9,36.6 M39.9,15.2 C39.5,15.2 39.1,15.2 38.7,15.3 C36.1,15.6 33.7,16.9 32,19 C30.3,21.1 29.6,23.7 29.9,26.3 C30.5,31.3 34.7,35.1 39.8,35.1 C40.2,35.1 40.6,35.1 41,35 C43.6,34.7 46,33.4 47.7,31.3 C49.4,29.2 50.1,26.6 49.8,24 C49.2,19 45,15.2 39.9,15.2 L39.9,15.2"/>
</g>

<g fill="#000000" fill-opacity="1" stroke="#000000" stroke-opacity="1" stroke-width="1" stroke-linecap="square" stroke-linejoin="miter" stroke-miterlimit="2" transform="matrix(1.07692,0,0,1.07692,8,8)"
>
</g>

<g fill="#007cba" fill-opacity="1" stroke="none" transform="matrix(1.07692,0,0,1.07692,8,8)"
>
<path vector-effect="none" fill-rule="nonzero" d="M46.2,26 C45.8,26 45.4,25.7 45.4,25.3 L45.4,24.5 C45.1,21.7 42.7,19.6 39.9,19.6 C39.5,19.6 39.1,19.3 39.1,18.9 C39.1,18.5 39.4,18.2 39.9,18.2 C43.5,18.2 46.5,20.9 46.9,24.4 C46.9,24.8 47,25 46.9,25.4 C46.9,25.8 46.6,26 46.2,26 L46.2,26 M29.046,34.755 L30.106,35.815 L26.713,39.21 L25.653,38.15 L29.046,34.755"/>
</g>

<g fill="#000000" fill-opacity="1" stroke="#000000" stroke-opacity="1" stroke-width="1" stroke-linecap="square" stroke-linejoin="miter" stroke-miterlimit="2" transform="matrix(1.07692,0,0,1.07692,8,8)"
>
</g>

<g fill="#007cba" fill-opacity="1" stroke="none" transform="matrix(1.07692,0,0,1.07692,8,8)"
>
<path vector-effect="none" fill-rule="nonzero" d="M13.9,55.3 L9.6,51 L24.5,36.1 L28.7,40.3 L13.9,55.3 L13.9,55.3 M11.8,51 L13.9,53.1 L26.6,40.4 L24.5,38.3 L11.8,51"/>
</g>

<g fill="#000000" fill-opacity="1" stroke="#000000" stroke-opacity="1" stroke-width="1" stroke-linecap="square" stroke-linejoin="miter" stroke-miterlimit="2" transform="matrix(1.07692,0,0,1.07692,8,8)"
>
</g>

<g fill="#007cba" fill-opacity="1" stroke="none" transform="matrix(1.07692,0,0,1.07692,8,8)"
>
<path vector-effect="none" fill-rule="nonzero" d="M22.408,39.355 L25.59,42.537 L24.53,43.597 L21.347,40.417 L22.408,39.355"/>
</g>

<g fill="#000000" fill-opacity="1" stroke="#000000" stroke-opacity="1" stroke-width="1" stroke-linecap="square" stroke-linejoin="miter" stroke-miterlimit="2" transform="matrix(1.07692,0,0,1.07692,8,8)"
>
</g>

<g fill="#000000" fill-opacity="1" stroke="#000000" stroke-opacity="1" stroke-width="1" stroke-linecap="square" stroke-linejoin="miter" stroke-miterlimit="2" transform="matrix(1.07692,0,0,1.07692,8,8)"
>
</g>

<g fill="#000000" fill-opacity="1" stroke="#000000" stroke-opacity="1" stroke-width="1" stroke-linecap="square" stroke-linejoin="miter" stroke-miterlimit="2" transform="matrix(1,0,0,1,0,0)"
>
</g>

<g fill="#000000" fill-opacity="1" stroke="#000000" stroke-opacity="1" stroke-width="1" stroke-linecap="square" stroke-linejoin="miter" stroke-miterlimit="2" transform="matrix(1,0,0,1,0,0)"
>
</g>

<g fill="#000000" fill-opacity="1" stroke="#000000" stroke-opacity="1" stroke-width="1" stroke-linecap="square" stroke-linejoin="miter" stroke-miterlimit="2" transform="matrix(1,0,0,1,0,0)"
>
</g>

<g fill="#000000" fill-opacity="1" stroke="#000000" stroke-opacity="1" stroke-width="1" stroke-linecap="square" stroke-linejoin="miter" stroke-miterlimit="2" transform="matrix(1,0,0,1,0,0)"
>
</g>

<g fill="#000000" fill-opacity="1" stroke="#000000" stroke-opacity="1" stroke-width="1" stroke-linecap="square" stroke-linejoin="miter" stroke-miterlimit="2" transform="matrix(1.07692,0,0,1.07692,8,8)"
>
</g>

<g fill="#000000" fill-opacity="1" stroke="#000000" stroke-opacity="1" stroke-width="1" stroke-linecap="square" stroke-linejoin="miter" stroke-miterlimit="2" transform="matrix(1,0,0,1,0,0)"
>
</g>

<g fill="#000000" fill-opacity="1" stroke="#000000" stroke-opacity="1" stroke-width="1" stroke-linecap="square" stroke-linejoin="miter" stroke-miterlimit="2" transform="matrix(1,0,0,1,0,0)"
>
</g>

<g fill="#000000" fill-opacity="1" stroke="#000000" stroke-opacity="1" stroke-width="1" stroke-linecap="square" stroke-linejoin="miter" stroke-miterlimit="2" transform="matrix(1,0,0,1,0,0)"
>
</g>

<g fill="#000000" fill-opacity="1" stroke="#000000" stroke-opacity="1" stroke-width="1" stroke-linecap="square" stroke-linejoin="miter" stroke-miterlimit="2" transform="matrix(1,0,0,1,0,0)"
>
</g>

<g fill="#000000" fill-opacity="1" stroke="#000000" stroke-opacity="1" stroke-width="1" stroke-linecap="square" stroke-linejoin="miter" stroke-miterlimit="2" transform="matrix(1,0,0,1,0,0)"
>
</g>

<g fill="#000000" fill-opacity="1" stroke="#000000" stroke-opacity="1" stroke-width="1" stroke-linecap="square" stroke-linejoin="miter" stroke-miterlimit="2" transform="matrix(1,0,0,1,0,0)"
>
</g>
</g>    
</svg>
