<?xml version="1.0" encoding="UTF-8" standalone="no"?>
<svg width="270.933mm" height="22.7542mm"
 xmlns="http://www.w3.org/2000/svg" xmlns:xlink="http://www.w3.org/1999/xlink"  version="1.2" baseProfile="tiny">
<desc>Created by EvoPdf</desc>
<defs>
</defs>
<g fill="none" stroke="black" stroke-width="1" fill-rule="evenodd" stroke-linecap="square" stroke-linejoin="bevel" >

<g fill="#000000" fill-opacity="1" stroke="#000000" stroke-opacity="1" stroke-width="1" stroke-linecap="square" stroke-linejoin="miter" stroke-miterlimit="2" transform="matrix(1,0,0,1,0,0)"
>
</g>

<g fill="#000000" fill-opacity="1" stroke="#000000" stroke-opacity="1" stroke-width="1" stroke-linecap="square" stroke-linejoin="miter" stroke-miterlimit="2" transform="matrix(1,0,0,1,0,0)"
>
</g>

<g fill="#000000" fill-opacity="1" stroke="#000000" stroke-opacity="1" stroke-width="1" stroke-linecap="square" stroke-linejoin="miter" stroke-miterlimit="2" transform="matrix(1,0,0,1,0,0)"
>
</g>

<g fill="#000000" fill-opacity="1" stroke="#000000" stroke-opacity="1" stroke-width="1" stroke-linecap="square" stroke-linejoin="miter" stroke-miterlimit="2" transform="matrix(1,0,0,1,0,0)"
>
</g>

<g fill="#000000" fill-opacity="1" stroke="#000000" stroke-opacity="1" stroke-width="1" stroke-linecap="square" stroke-linejoin="miter" stroke-miterlimit="2" transform="matrix(1.07692,0,0,1.07692,8,8)"
>
</g>

<g fill="#3bb0c9" fill-opacity="1" stroke="none" transform="matrix(1.07692,0,0,1.07692,8,8)"
>
<path vector-effect="none" fill-rule="nonzero" d="M23.9,54.8 C11.6,54.8 1.5,44.8 1.5,32.5 C1.5,20.2 11.5,10.2 23.9,10.2 C36.3,10.2 46.3,20.2 46.3,32.5 C46.3,44.8 36.2,54.8 23.9,54.8 M23.9,11.7 C12.3,11.7 2.9,21 2.9,32.5 C2.9,44 12.3,53.3 23.8,53.3 C35.3,53.3 44.8,44 44.8,32.5 C44.8,21 35.4,11.7 23.9,11.7 "/>
</g>

<g fill="#000000" fill-opacity="1" stroke="#000000" stroke-opacity="1" stroke-width="1" stroke-linecap="square" stroke-linejoin="miter" stroke-miterlimit="2" transform="matrix(1.07692,0,0,1.07692,8,8)"
>
</g>

<g fill="#3bb0c9" fill-opacity="1" stroke="none" transform="matrix(1.07692,0,0,1.07692,8,8)"
>
<path vector-effect="none" fill-rule="nonzero" d="M23.9,49 C14.7,49 7.3,41.6 7.3,32.5 C7.3,23.4 14.7,16 23.9,16 C33.1,16 40.5,23.4 40.5,32.5 C40.5,41.6 33.1,49 23.9,49 M23.9,17.4 C15.5,17.4 8.7,24.2 8.7,32.5 C8.7,40.8 15.5,47.6 23.9,47.6 C32.3,47.6 39.1,40.8 39.1,32.5 C39.1,24.2 32.3,17.4 23.9,17.4 L23.9,17.4"/>
</g>

<g fill="#000000" fill-opacity="1" stroke="#000000" stroke-opacity="1" stroke-width="1" stroke-linecap="square" stroke-linejoin="miter" stroke-miterlimit="2" transform="matrix(1.07692,0,0,1.07692,8,8)"
>
</g>

<g fill="#3bb0c9" fill-opacity="1" stroke="none" transform="matrix(1.07692,0,0,1.07692,8,8)"
>
<path vector-effect="none" fill-rule="nonzero" d="M23.9,43.3 C17.9,43.3 13.1,38.5 13.1,32.5 C13.1,26.5 18,21.7 23.9,21.7 C29.8,21.7 34.7,26.5 34.7,32.5 C34.7,38.5 29.9,43.3 23.9,43.3 L23.9,43.3 M23.9,23.2 C18.7,23.2 14.5,27.4 14.5,32.5 C14.5,37.6 18.7,41.8 23.9,41.8 C29.1,41.8 33.3,37.6 33.3,32.5 C33.3,27.4 29.1,23.2 23.9,23.2 L23.9,23.2"/>
</g>

<g fill="#000000" fill-opacity="1" stroke="#000000" stroke-opacity="1" stroke-width="1" stroke-linecap="square" stroke-linejoin="miter" stroke-miterlimit="2" transform="matrix(1.07692,0,0,1.07692,8,8)"
>
</g>

<g fill="#3bb0c9" fill-opacity="1" stroke="none" transform="matrix(1.07692,0,0,1.07692,8,8)"
>
<path vector-effect="none" fill-rule="nonzero" d="M23.9,37.5 C21.1,37.5 18.8,35.2 18.8,32.5 C18.8,29.8 21.1,27.5 23.9,27.5 C26.7,27.5 29,29.8 29,32.5 C29,35.2 26.7,37.5 23.9,37.5 M23.9,28.9 C21.9,28.9 20.3,30.5 20.3,32.5 C20.3,34.5 21.9,36.1 23.9,36.1 C25.9,36.1 27.5,34.5 27.5,32.5 C27.5,30.5 25.9,28.9 23.9,28.9 "/>
</g>

<g fill="#000000" fill-opacity="1" stroke="#000000" stroke-opacity="1" stroke-width="1" stroke-linecap="square" stroke-linejoin="miter" stroke-miterlimit="2" transform="matrix(1.07692,0,0,1.07692,8,8)"
>
</g>

<g fill="#3bb0c9" fill-opacity="1" stroke="none" transform="matrix(1.07692,0,0,1.07692,8,8)"
>
<path vector-effect="none" fill-rule="nonzero" d="M23.9,37.5 C21.1,37.5 18.8,35.2 18.8,32.5 C18.8,29.8 21.1,27.5 23.9,27.5 C26.7,27.5 29,29.8 29,32.5 C29,35.2 26.7,37.5 23.9,37.5 M23.9,28.9 C21.9,28.9 20.3,30.5 20.3,32.5 C20.3,34.5 21.9,36.1 23.9,36.1 C25.9,36.1 27.5,34.5 27.5,32.5 C27.5,30.5 25.9,28.9 23.9,28.9 "/>
</g>

<g fill="#000000" fill-opacity="1" stroke="#000000" stroke-opacity="1" stroke-width="1" stroke-linecap="square" stroke-linejoin="miter" stroke-miterlimit="2" transform="matrix(1.07692,0,0,1.07692,8,8)"
>
</g>

<g fill="#3bb0c9" fill-opacity="1" stroke="none" transform="matrix(1.07692,0,0,1.07692,8,8)"
>
<path vector-effect="none" fill-rule="nonzero" d="M26.1,32.5 C26.1,33.715 25.115,34.7 23.9,34.7 C22.685,34.7 21.7,33.715 21.7,32.5 C21.7,31.285 22.685,30.3 23.9,30.3 C25.115,30.3 26.1,31.285 26.1,32.5 "/>
</g>

<g fill="#000000" fill-opacity="1" stroke="#000000" stroke-opacity="1" stroke-width="1" stroke-linecap="square" stroke-linejoin="miter" stroke-miterlimit="2" transform="matrix(1.07692,0,0,1.07692,8,8)"
>
</g>

<g fill="#3bb0c9" fill-opacity="1" stroke="none" transform="matrix(1.07692,0,0,1.07692,8,8)"
>
<path vector-effect="none" fill-rule="nonzero" d="M62.8,42.6 L62.6,42.6 L24,33.6 C23.6,33.5 23.4,33.1 23.5,32.7 C23.6,32.3 24,32.1 24.4,32.2 L63,41.2 C63.4,41.3 63.6,41.7 63.5,42.1 C63.4,42.4 63.1,42.6 62.8,42.6 "/>
</g>

<g fill="#000000" fill-opacity="1" stroke="#000000" stroke-opacity="1" stroke-width="1" stroke-linecap="square" stroke-linejoin="miter" stroke-miterlimit="2" transform="matrix(1.07692,0,0,1.07692,8,8)"
>
</g>

<g fill="#3bb0c9" fill-opacity="1" stroke="none" transform="matrix(1.07692,0,0,1.07692,8,8)"
>
<path vector-effect="none" fill-rule="nonzero" d="M61.2,44.9 L49.1,42 L46.6,38 L50.6,35.5 L62.7,38.4 L58.7,40.9 L61.2,44.9 L61.2,44.9 M50,40.7 L58.1,42.6 L56.7,40.3 L59,39 L50.9,37.1 L48.6,38.5 L50,40.7 L50,40.7"/>
</g>

<g fill="#000000" fill-opacity="1" stroke="#000000" stroke-opacity="1" stroke-width="1" stroke-linecap="square" stroke-linejoin="miter" stroke-miterlimit="2" transform="matrix(1.07692,0,0,1.07692,8,8)"
>
</g>

<g fill="#000000" fill-opacity="1" stroke="#000000" stroke-opacity="1" stroke-width="1" stroke-linecap="square" stroke-linejoin="miter" stroke-miterlimit="2" transform="matrix(1.07692,0,0,1.07692,8,8)"
>
</g>

<g fill="#000000" fill-opacity="1" stroke="#000000" stroke-opacity="1" stroke-width="1" stroke-linecap="square" stroke-linejoin="miter" stroke-miterlimit="2" transform="matrix(1,0,0,1,0,0)"
>
</g>

<g fill="#000000" fill-opacity="1" stroke="#000000" stroke-opacity="1" stroke-width="1" stroke-linecap="square" stroke-linejoin="miter" stroke-miterlimit="2" transform="matrix(1,0,0,1,0,0)"
>
</g>

<g fill="#000000" fill-opacity="1" stroke="#000000" stroke-opacity="1" stroke-width="1" stroke-linecap="square" stroke-linejoin="miter" stroke-miterlimit="2" transform="matrix(1,0,0,1,0,0)"
>
</g>

<g fill="#000000" fill-opacity="1" stroke="#000000" stroke-opacity="1" stroke-width="1" stroke-linecap="square" stroke-linejoin="miter" stroke-miterlimit="2" transform="matrix(1,0,0,1,0,0)"
>
</g>

<g fill="#000000" fill-opacity="1" stroke="#000000" stroke-opacity="1" stroke-width="1" stroke-linecap="square" stroke-linejoin="miter" stroke-miterlimit="2" transform="matrix(1.07692,0,0,1.07692,8,8)"
>
</g>

<g fill="#000000" fill-opacity="1" stroke="#000000" stroke-opacity="1" stroke-width="1" stroke-linecap="square" stroke-linejoin="miter" stroke-miterlimit="2" transform="matrix(1,0,0,1,0,0)"
>
</g>

<g fill="#000000" fill-opacity="1" stroke="#000000" stroke-opacity="1" stroke-width="1" stroke-linecap="square" stroke-linejoin="miter" stroke-miterlimit="2" transform="matrix(1,0,0,1,0,0)"
>
</g>

<g fill="#000000" fill-opacity="1" stroke="#000000" stroke-opacity="1" stroke-width="1" stroke-linecap="square" stroke-linejoin="miter" stroke-miterlimit="2" transform="matrix(1,0,0,1,0,0)"
>
</g>

<g fill="#000000" fill-opacity="1" stroke="#000000" stroke-opacity="1" stroke-width="1" stroke-linecap="square" stroke-linejoin="miter" stroke-miterlimit="2" transform="matrix(1,0,0,1,0,0)"
>
</g>

<g fill="#000000" fill-opacity="1" stroke="#000000" stroke-opacity="1" stroke-width="1" stroke-linecap="square" stroke-linejoin="miter" stroke-miterlimit="2" transform="matrix(1,0,0,1,0,0)"
>
</g>

<g fill="#000000" fill-opacity="1" stroke="#000000" stroke-opacity="1" stroke-width="1" stroke-linecap="square" stroke-linejoin="miter" stroke-miterlimit="2" transform="matrix(1,0,0,1,0,0)"
>
</g>
</g>
</svg>
