<svg id="Layer_1" height="40" viewBox="0 0 128 128" width="40" xmlns="http://www.w3.org/2000/svg" data-name="Layer 1"><path d="m105.617 64.533h-83.234l13.872-21.866h55.489z" fill="#fed33c"/><path d="m50.128 64.533h-27.745l13.872-21.866z" fill="#fee179"/><path d="m77.872 64.533h-27.744l13.872-21.866z" fill="#fee179"/><path d="m105.617 64.533h-27.745l13.872-21.866z" fill="#fee179"/><path d="m64 112.25-41.617-47.717h83.234z" fill="#feb500"/><g fill="#fed33c"><path d="m50.128 64.533 13.872 47.717 13.872-47.717z"/><path d="m64 14a1.751 1.751 0 0 0 -1.75 1.75v13.083a1.75 1.75 0 0 0 3.5 0v-13.083a1.751 1.751 0 0 0 -1.75-1.75z"/><path d="m84.27 22.4a1.75 1.75 0 0 0 -2.474 0l-9.252 9.252a1.75 1.75 0 1 0 2.475 2.474l9.251-9.251a1.749 1.749 0 0 0 0-2.475z"/><path d="m46.2 22.4a1.75 1.75 0 1 0 -2.475 2.475l9.252 9.251a1.75 1.75 0 1 0 2.475-2.474z"/></g></svg>