<svg id="Outline" height="50" fill="#733c0a" viewBox="0 0 512 512" width="50" xmlns="http://www.w3.org/2000/svg"><path d="m144 496h224a24.028 24.028 0 0 0 24-24v-432a24.028 24.028 0 0 0 -24-24h-224a24.028 24.028 0 0 0 -24 24v432a24.028 24.028 0 0 0 24 24zm224-16h-224a8.009 8.009 0 0 1 -8-8v-40h240v40a8.009 8.009 0 0 1 -8 8zm-232-64v-320h240v320zm8-384h224a8.009 8.009 0 0 1 8 8v40h-240v-40a8.009 8.009 0 0 1 8-8z"/><path d="m248 64h48a8 8 0 0 0 0-16h-48a8 8 0 0 0 0 16z"/><circle cx="216" cy="56" r="8"/><path d="m280 456a24 24 0 1 0 -24 24 24.027 24.027 0 0 0 24-24zm-24 8a8 8 0 1 1 8-8 8.009 8.009 0 0 1 -8 8z"/><path d="m320 144h-13.371a55.958 55.958 0 0 0 -101.143 0h-13.486a24.028 24.028 0 0 0 -24 24v128a24.028 24.028 0 0 0 24 24h128a24.028 24.028 0 0 0 24-24v-128a24.028 24.028 0 0 0 -24-24zm0 16a8.009 8.009 0 0 1 8 8v40h-32.842a56.18 56.18 0 0 0 16.842-40 57 57 0 0 0 -.571-8zm-103.928 5.568a40.277 40.277 0 0 1 38.348-37.538c.532-.02 1.061-.03 1.59-.03a40 40 0 0 1 39.99 40 40.156 40.156 0 0 1 -20.007 34.639 7.994 7.994 0 0 0 -3.825 5.294l-5.349 25.7a8.033 8.033 0 0 1 -7.832 6.367h-5.974a8.033 8.033 0 0 1 -7.832-6.37l-5.349-25.7a8 8 0 0 0 -3.825-5.294 39.9 39.9 0 0 1 -19.935-37.068zm.728 42.432a56.267 56.267 0 0 0 8.061 6.539l4.653 22.351a23.532 23.532 0 0 0 .9 3.11h-46.414v-32zm-24.8-48h8.582c-.222 1.526-.391 3.067-.483 4.628a56.1 56.1 0 0 0 5.279 27.372h-21.378v-24a8.009 8.009 0 0 1 8-8zm-8 136v-8h57.754l4 16h-53.754a8.009 8.009 0 0 1 -8-8zm136 8h-57.754l-6.485-25.94a8 8 0 0 0 -7.761-6.06h-64v-16h74.987a24.1 24.1 0 0 0 23.5-19.11l2.679-12.89h42.834v16h-32a8 8 0 0 0 -7.761 9.94l8 32a8 8 0 0 0 7.761 6.06h24v8a8.009 8.009 0 0 1 -8 8zm8-48v16h-17.754l-4-16z"/><path d="m208 336h-32a8 8 0 0 0 -8 8v32a8 8 0 0 0 8 8h32a8 8 0 0 0 8-8v-32a8 8 0 0 0 -8-8zm-8 32h-16v-16h16z"/><path d="m272 336h-32a8 8 0 0 0 -8 8v32a8 8 0 0 0 8 8h32a8 8 0 0 0 8-8v-32a8 8 0 0 0 -8-8zm-8 32h-16v-16h16z"/><path d="m336 336h-32a8 8 0 0 0 -8 8v32a8 8 0 0 0 8 8h32a8 8 0 0 0 8-8v-32a8 8 0 0 0 -8-8zm-8 32h-16v-16h16z"/><path d="m256 192a24 24 0 1 0 -24-24 24.027 24.027 0 0 0 24 24zm0-32a8 8 0 1 1 -8 8 8.009 8.009 0 0 1 8-8z"/></svg>