<svg xmlns="http://www.w3.org/2000/svg" fill="none" viewBox="0 0 100 100"><path fill="url(#a)" fill-rule="evenodd" d="M25.195 14c-4.087 0-6.489 4.6-4.158 7.961l7.135 10.289H15.071c-4.087 0-6.49 4.6-4.158 7.961L39.43 81.335c5.558 8.015 17.584 7.413 22.316-1.117l10.119-18.24.005-.01 16.584-29.893C92.952 23.965 87.097 14 77.834 14zm51.619 22.355 4.56-8.219c1.5-2.703-.453-6.025-3.54-6.025H31.001l7.031 10.139h29.676c3.745 0 6.933 1.629 9.105 4.105m-43.017 4.006H20.878L46.083 76.71c2.138 3.082 6.763 2.85 8.583-.43l.22-.75c1.044-3.58-1.619-7.51-3.9-10.46a48 48 0 0 1-1.431-1.984zm30.992 17.67c-1.821 3.279-6.445 3.51-8.582.428L43.657 40.36H67.71c3.088 0 5.04 3.322 3.54 6.025z" clip-rule="evenodd"/><defs><linearGradient id="a" x1="66.794" x2="26.721" y1="15.014" y2="77.316" gradientUnits="userSpaceOnUse"><stop stop-color="#B53CF0"/><stop offset="1" stop-color="#8244D3"/></linearGradient></defs></svg>