<svg xmlns="http://www.w3.org/2000/svg" data-name="Waving Hand" viewBox="0 0 1080 1080"><path fill="#ffc36c" d="m705.77,480.14c-46.08-47.29-82.7-86.64-107.59-113.79-52.32-57.07-82.37-92.56-136.32-145.89-25.77-25.48-47.46-45.66-61.55-58.55,15.26,5.43,30.52,10.87,45.78,16.3,91.73,95.98,183.46,191.95,275.18,287.93"/><path fill="#ffae2c" d="m894.71,394.85c-2.99,4.86-5.7,9.74-8.15,14.64-13.39,26.73-19.19,54.04-22.23,81.41-.3,2.73-.58,5.46-.83,8.2-1.2,12.96-1.89,25.93-2.57,38.85-.9,17.05-1.84,34.95.08,56.2.6,6.67,1.49,13.67,2.74,21.08,1.01,5.98,2.08,11.14,3.13,16,2.6,12.09,5.01,22.27,5.89,38.47,0,0,1.41,25.96-3.98,54.64-19.28,102.5-96.79,156.12-96.79,156.12-64.43,44.58-139.86,47-194.44,31.73-1.52-.42-3.03-.86-4.52-1.32-1.69-.51-3.32-1.04-4.92-1.57-7.79-2.6-14.65-5.46-21.87-8.92-7.97-3.83-16.4-8.38-27.01-14.13-47.9-25.92-58.88-42.43-133.6-104.95,0,0-113.59-94.62-149.51-134.2-2.11-2.32-3.34-3.72-4.41-4.99-2.73-3.24-4.65-5.71-4.96-6.11-6.77-8.73-22.82-22.58-22.82-22.58-19.5-16.84-31.7-39.54-34.49-44.75-3.96-7.37-9.25-18.7-13.26-33.72,1.44-4.41,3.61-9.79,6.95-15.55,3.56-6.15,7.42-10.94,10.7-14.49,2.52-.14,5.15-.23,7.88-.23,5.6,0,10.82.31,15.59.83,15.1,5.11,26.78,10.41,34.36,14.12,12.1,5.93,21.1,11.41,58.67,35.95,14.55,9.5,21.82,14.26,29.31,19.24,17.43,11.58,41.41,27.63,70.45,47.47-29.72-27.59-52.62-49.74-68.12-64.96-16.95-16.65-25.43-24.98-37.34-37.57-7.73-8.17-12.8-13.8-23.67-25.02-15.05-15.53-14.38-15.13-23.69-23.85-9.16-8.59-26.12-24.04-39.03-50.06-4.9-9.88-7.87-18.56-9.64-24.53.71-8.28,3.76-32.65,20.33-40.86,5.36-2.66,16.66-5.84,38.88,5.09,60.74,29.89,204.87,158.8,228.19,179.74-14.17-17.23-37.2-44.59-67.18-77.18-52.9-57.52-81.16-86.14-81.16-86.14-24.39-24.69-50.19-49.76-70.52-88.11-5.96-11.25-16.17-32.54-9.48-53.73,1.29-4.09,4.57-14.02,13.9-19.99,3.8-2.44,12.1-6.46,27.9-3.61,36.82,6.63,73,43.07,78.8,48.91,39.45,39.72,19.41,10.54,77.62,77.27,26.73,30.64,65.96,74.63,117.38,128.84-35.53-47.38-65.53-84.69-86.62-110.31-27.12-32.94-47.36-71.31-75.62-103.28-6.12-6.92-34.32-38.53-29.69-61.94.11-.58.25-1.15.4-1.71,2.47-9.01,8.62-16.32,8.62-16.32,3.49-4.15,10.68-12.67,22.36-13.54,11.3-.84,19.55,6.03,21.61,7.86,10.95,6.88,26.82,17.32,45.08,31.16,58.72,44.52,90.15,84.84,139.15,142.05,26.04,30.41,63.9,73.59,112.22,125.15.16.17.33.35.49.52.8-1.04,1.58-2.08,2.34-3.11.48-.65.95-1.3,1.41-1.95,13.57-18.96,20.09-35.71,23.56-47.63,7.08-24.35,4.57-39.47,17.46-58.58,1.63-2.42,7.84-11.32,26.34-24.5,27.32-19.47,68.05-48.49,101.35-33.33,14.62,6.65,27.31,21.6,29.7,38.09,3.12,21.49-12.94,34.09-28.73,59.72Z"/><path fill="#f90" d="M419.53 163.74c-3.72.24-11.78 1.32-18.18 7.35-7.83 7.37-8.45 17.69-8.73 22.34-2.2 36.41 40.03 78.1 40.03 78.1 37.38 36.9 86.1 96.42 151.33 184.73-6.44 4.86-12.88 9.71-19.33 14.57-48.95-63.89-97.91-127.79-146.86-191.68-30.85-34.15-46.82-67.48-43.16-86.59 2.23-11.63 9.95-20.25 9.95-20.25 2.68-3.25 5.91-7.18 11.41-9.59 10.29-4.51 20.68-.25 23.54 1.03zM208.04 378.09c-9.14 25.26 17.65 57.29 64.96 104.22 34 33.72 82.17 78.69 144.78 128.61-4.96 7.36-9.92 14.71-14.88 22.07-56.09-54.39-100.98-97.63-136.16-130.07-12.23-11.28-30.93-30.71-52.18-59.02-7.71-10.27-13.7-19.09-17.73-25.24-3.93-5.99-16.26-36.76-.52-54.26 12.28-13.66 34.27-10.67 37.57-10.17-9.68 4.31-21.38 11.59-25.83 23.87z"/><path fill="#f90" d="m872.76,669.68s1.41,25.96-3.98,54.64c-19.28,102.5-96.79,156.12-96.79,156.12-64.43,44.58-139.86,47-194.44,31.73-15.43-4.68-30.86-9.36-46.29-14.05-11.79-7.16-29.24-18.35-49.3-33.65-20.38-15.54-32.1-26.66-57.91-49.3-26.25-23.03-30.24-25.66-58.7-50.09-79.2-67.99-118.98-101.84-155.92-146.78-22.96-27.93-39.61-52.44-49.9-68.44-.73-1.78-6.22-15.86,1.49-29.11,6.9-11.86,21.5-18.13,36.29-15.26-7.96,5.13-18.54,13.89-21.34,26.9-4.99,23.16,19.32,44.19,30.26,57.91,37.13,46.57,122.84,108.73,183.65,158.09,62.69,50.88,66.04,61.46,104.63,82.18,29.72,15.95,74.68,40.24,135.37,37.82,51.57-2.06,97.74-24.66,105.36-28.47h0s0,0,0,0c72.05-45.84,92.04-133.71,98.03-159.62,4.43-19.16,9.73-61.35,9.75-79.8.02-13.02-.26-22.92.2-42.01.36-14.84,2.02-31.88,6.11-52.79,1.34-6.84,18.1-90.47,37.23-96.21-13.39,26.73-19.19,54.04-22.23,81.41-.3,2.73-.58,5.46-.83,8.2-1.2,12.96-1.89,25.93-2.57,38.85-.9,17.05-1.84,34.95.08,56.2.6,6.67,1.49,13.67,2.74,21.08,1.29,7.65,2.5,13.06,3.13,16,1.83,8.49,4.12,21.08,5.89,38.47Z"/><path fill="#f90" d="M863.48 499.1c-.37-5.05-.73-8.4-.89-9.76.57.51 1.14 1.03 1.72 1.56-.3 2.73-.58 5.46-.83 8.2zM725.02 461.09c-.03.24-.05.48-.07.72-.45.41-.89.82-1.34 1.23.48-.65.95-1.3 1.41-1.95zM265.17 234.48c-12.85 28.43 25.03 70.54 93.91 145.57 56.81 61.86 102.96 111.66 133.1 144.1-4.89 4.49-9.78 8.98-14.66 13.47-70.26-75.83-140.52-151.65-210.78-227.48-7.46-12.08-11.66-22.82-14.09-30.26-5.2-15.96-11.12-33.74-3.13-50.09 1.12-2.29 3.65-7.32 9-11.74 14.69-12.12 35.08-6.73 38.25-5.84-11.86 3.39-25.9 9.67-31.59 22.27z"/><path fill="none" stroke="#f76f00" stroke-linecap="round" stroke-miterlimit="10" stroke-width="6" d="m650.75,648.76c-9.59-39.01-3.67-67.82.75-82.62,11.38-38.08,37.51-67.44,52.57-83.37,12.67-13.39,18.5-16.45,27.43-29.57,19.6-28.77,15.64-49.44,23.64-72.57,21.04-60.82,112.36-102.73,150.96-78.86,3,1.86,9.98,6.77,14.27,15.77,14.43,30.28-23.41,60.81-45.06,116.41-14.94,38.36-14.72,70.14-14.27,133.69.52,74.28,13.73,78.13,12.02,120.92-2.96,73.97-46.69,168.43-132.19,210.3-74.96,36.7-149.3,16.95-173.49,10.51-48.68-12.94-71.51-32.89-181.76-128.43-129.15-111.92-240.18-207.83-226.82-254.05.91-3.15,3.82-13.22,12.64-18.85,19.18-12.25,51.23,6.14,69.23,16.79,62.12,36.77,123.89,80.28,162.23,108.15"/><path fill="none" stroke="#f76f00" stroke-linecap="round" stroke-miterlimit="10" stroke-width="6" d="M486.74 769.74c8.31-11.38 22.51-27.69 44.5-41.12 37.98-23.19 75.61-23.37 91.25-22.53M474.97 536.62c-40.88-37.23-82.54-73.74-126-107.95-22.03-17.35-44.55-34.25-68.26-49.26-16.53-10.46-34.73-21.86-54.18-25.82-23.45-4.77-40.85 20.12-38.46 41.46 2.8 25.05 23 45.35 38.64 63.52 17.97 20.87 37.22 40.63 56.76 60.02 34.79 34.54 70.79 67.88 107.37 100.5 3.69 3.29 7.39 6.58 11.11 9.85"/><path fill="none" stroke="#f76f00" stroke-linecap="round" stroke-miterlimit="10" stroke-width="6" d="M560.68 467.81c-20.6-24.78-41.6-49.22-62.94-73.37-33.71-38.16-68.19-75.76-104.74-111.22-16.15-15.67-32.72-31.02-50.41-44.94-14.53-11.44-30.6-23.76-49.31-26.75-12.74-2.04-29.16-1.6-38.71 8.37-2.13 2.22-8.59 9.81-7.89 29.29 1.6 44.52 38.14 83.15 90.27 137.01.07.07.26.26.42.43 37.51 38.72 82.78 87.59 137.6 149.99M717.6 463.25c-93.85-109.8-168.06-186.96-218-236.58-25.69-25.53-77.36-76.48-107.59-62.53-9.93 4.58-14.68 14.84-15.49 16.66-12.03 27.06 14.82 63.41 29.39 82.66 56.32 74.42 109.17 142.18 157.36 202.71"/><path fill="none" stroke="#f76f00" stroke-linecap="round" stroke-miterlimit="10" stroke-width="6" d="M383.14 670.54c18.45-37.22 50.93-91.39 105.9-143.45 43.93-41.61 87.8-68.2 120.92-84.87M209.64 769.74c8.73 16.4 23.64 39.47 48.13 61.04 39.63 34.91 82.14 46.33 103.3 50.48M198.4 824.77c6.04 11.36 16.37 27.34 33.33 42.28 27.45 24.17 56.89 32.09 71.54 34.96M743.05 301.93c-5.47-17.76-15.74-43.23-35.71-69.05-32.31-41.78-71.89-61.04-91.88-69.12M764.51 250.02c-3.79-12.3-10.9-29.94-24.73-47.82-22.38-28.93-49.79-42.27-63.63-47.87"/></svg>