<svg width="324" height="311" viewBox="0 0 324 311" fill="none" xmlns="http://www.w3.org/2000/svg">
<path d="M66.3516 15.5C80.8516 40.3333 121.552 93.3 160.352 88.5C185.518 86 234.852 61.5 256.852 8" stroke="black" stroke-width="16" stroke-linecap="round"/>
<path d="M21.3163 61.1173C45.6951 76.3692 97.3936 118.668 91.4105 157.304C88.1428 182.382 62.147 230.944 7.99986 251.299" stroke="black" stroke-width="16" stroke-linecap="round"/>
<path d="M293.453 64.559C269.77 80.8696 219.984 125.404 227.663 163.739C232.032 188.649 260.141 236.019 315.132 253.97" stroke="black" stroke-width="16" stroke-linecap="round"/>
<path d="M66.7232 301.43C80.4123 276.14 119.378 221.885 158.312 225.427C183.547 227.112 233.647 250.003 257.366 302.763" stroke="black" stroke-width="16" stroke-linecap="round"/>
<circle cx="161" cy="158" r="35" fill="#F5BEBE"/>
</svg>
