<svg width="58" height="86" viewBox="0 0 58 86" fill="none" xmlns="http://www.w3.org/2000/svg">
<path d="M32 0.5C32.5 9.66667 38.3 27.5 57.5 25.5" stroke="black" stroke-width="6"/>
<path d="M58 57.5C58 53.7573 57.2499 50.0513 55.7925 46.5935C54.3351 43.1357 52.199 39.9939 49.5061 37.3475C46.8132 34.701 43.6163 32.6017 40.0978 31.1694C36.5794 29.7372 32.8083 29 29 29C25.1917 29 21.4206 29.7372 17.9022 31.1694C14.3837 32.6017 11.1868 34.701 8.4939 37.3475C5.801 39.9939 3.66488 43.1357 2.20749 46.5935C0.750107 50.0513 -3.32935e-07 53.7573 0 57.5L6.19302 57.5C6.19302 54.5566 6.78294 51.642 7.92909 48.9226C9.07525 46.2033 10.7552 43.7324 12.873 41.6511C14.9909 39.5698 17.5051 37.9188 20.2721 36.7924C23.0392 35.666 26.0049 35.0862 29 35.0862C31.9951 35.0862 34.9608 35.666 37.7279 36.7924C40.4949 37.9188 43.0091 39.5698 45.127 41.6511C47.2448 43.7324 48.9247 46.2033 50.0709 48.9226C51.2171 51.642 51.807 54.5566 51.807 57.5H58Z" fill="black"/>
<circle cx="29" cy="48" r="9" fill="#F5BEBE"/>
<circle cx="13.5" cy="11.5" r="11.5" fill="#F5BEBE"/>
<circle cx="50" cy="8" r="8" fill="black"/>
</svg>
