<svg width="316" height="223" viewBox="0 0 316 223" fill="none" xmlns="http://www.w3.org/2000/svg">
<circle cx="22" cy="22" r="22" fill="#F5BEBE"/>
<rect x="37" y="78" width="26" height="145" fill="#1A1A1A"/>
<rect x="88" y="78" width="26" height="145" fill="#1A1A1A"/>
<rect x="139" y="78" width="26" height="145" fill="#1A1A1A"/>
<rect x="69" y="3" width="141" height="19" fill="#F5BEBE"/>
<path d="M201.5 218.5C215.577 218.206 236.633 214.273 249.526 208.614C262.419 202.955 274.071 194.812 283.817 184.65C293.563 174.488 301.212 162.506 306.328 149.388C311.443 136.27 313.925 122.273 313.63 108.196C313.336 94.1185 310.272 80.2371 304.614 67.3441C298.955 54.451 290.812 42.7988 280.65 33.0527C270.488 23.3067 258.506 15.6576 245.388 10.5422C232.27 5.42678 218.273 2.94528 204.196 3.23936L204.588 22.0144C216.199 21.7718 227.745 23.8187 238.565 28.0381C249.386 32.2575 259.269 38.5669 267.652 46.606C276.034 54.6451 282.75 64.2565 287.418 74.8913C292.086 85.5262 294.613 96.9762 294.855 108.588C295.098 120.199 293.051 131.745 288.832 142.565C284.612 153.386 278.303 163.269 270.264 171.652C262.225 180.034 252.613 186.75 241.979 191.418C231.344 196.086 213.112 202.257 201.5 202.5L201.5 218.5Z" fill="#F5BEBE"/>
<rect x="69" y="35" width="123" height="17" fill="#F5BEBE"/>
<path d="M194.27 193.524C218.623 189.517 243.836 177.337 259.226 160.933C274.615 144.528 282.155 124.287 280.327 104.286C278.498 84.2847 267.436 66.01 249.37 53.1425C231.304 40.2751 207.575 33.7709 182.963 34.9402L183.5 52C202.675 51.089 220.698 56.6808 234.773 66.7059C248.849 76.731 257.467 90.969 258.892 106.552C260.317 122.135 254.442 137.905 242.452 150.686C230.461 163.467 213.246 172.309 194.273 175.431L194.27 193.524Z" fill="#F5BEBE"/>
</svg>
