<svg width="52" height="56" viewBox="0 0 52 56" fill="none" xmlns="http://www.w3.org/2000/svg">
<path d="M35.3933 27.6797L36.0906 27.2532L51.1896 18.0169C51.1896 18.0169 51.1896 18.0169 51.1896 18.0168C51.2624 17.9723 51.3256 17.914 51.3758 17.845C51.4259 17.7761 51.462 17.6979 51.482 17.615C51.5019 17.5321 51.5054 17.4461 51.4921 17.3618L51.986 17.2839L51.4921 17.3618C51.4788 17.2776 51.449 17.1968 51.4045 17.1241L51.4045 17.124L46.9676 9.87137L46.9675 9.87123C46.923 9.79847 46.8646 9.73518 46.7957 9.68498L47.09 9.28077L46.7957 9.68497C46.7267 9.63478 46.6486 9.59865 46.5657 9.57867C46.4827 9.55868 46.3967 9.55522 46.3125 9.56848C46.2282 9.58175 46.1474 9.61148 46.0747 9.65598L31.6612 18.4734L30.9003 18.9389V18.0469V1.1493C30.9003 0.977094 30.8318 0.811944 30.7101 0.690177C30.5883 0.568409 30.4232 0.5 30.2509 0.5H21.7501C21.5779 0.5 21.4127 0.568409 21.2909 0.690177C21.1692 0.811944 21.1008 0.977094 21.1008 1.1493V18.0469V18.9388L20.3399 18.4734L5.92578 9.65656C5.92578 9.65656 5.92577 9.65655 5.92577 9.65655C5.85302 9.61205 5.77221 9.58232 5.68797 9.56906C5.60373 9.55579 5.51769 9.55925 5.43478 9.57924C5.35188 9.59923 5.27372 9.63535 5.20477 9.68555C5.13583 9.73575 5.07745 9.79904 5.03297 9.8718L5.03289 9.87194L0.596441 17.1238C0.596416 17.1239 0.596392 17.1239 0.596367 17.1239C0.506736 17.2711 0.479056 17.4478 0.519388 17.6154C0.559669 17.7827 0.664512 17.9273 0.811013 18.0176C0.811239 18.0177 0.811465 18.0178 0.811692 18.018L15.9104 27.2532L16.6077 27.6797L15.9104 28.1062L0.810781 37.3426L0.810419 37.3428C0.737666 37.3872 0.674394 37.4455 0.624219 37.5144C0.574043 37.5833 0.537948 37.6614 0.518001 37.7443C0.498054 37.8272 0.494645 37.9132 0.507971 37.9973C0.521296 38.0815 0.551092 38.1622 0.595659 38.2349L0.595962 38.2354L5.03288 45.4875L5.03308 45.4878C5.07754 45.5606 5.1359 45.6239 5.20483 45.6741C5.27377 45.7244 5.35192 45.7605 5.43483 45.7806C5.51774 45.8006 5.60378 45.8041 5.68803 45.7908L5.76566 46.2848L5.68804 45.7908C5.77229 45.7776 5.85312 45.7479 5.92589 45.7034L20.3398 36.886L21.1008 36.4206V37.3126V54.2101C21.1008 54.3823 21.1692 54.5475 21.2909 54.6692C21.4127 54.791 21.5779 54.8594 21.7501 54.8594H30.2509C30.4232 54.8594 30.5883 54.791 30.7101 54.6692C30.8318 54.5475 30.9003 54.3823 30.9003 54.2101V37.3131V36.4212L31.6611 36.8866L46.0751 45.7028C46.0752 45.7028 46.0752 45.7028 46.0752 45.7029C46.2222 45.7927 46.3988 45.8205 46.5662 45.7802C46.7336 45.7399 46.8781 45.6348 46.9681 45.4881L35.3933 27.6797ZM35.3933 27.6797L36.0906 28.1062L51.1893 37.342C51.1895 37.3421 51.1896 37.3422 51.1898 37.3423C51.3364 37.4326 51.4413 37.5772 51.4816 37.7446C51.5219 37.912 51.4943 38.0884 51.405 38.2355C51.4048 38.2357 51.4047 38.236 51.4046 38.2362L46.9683 45.4878L35.3933 27.6797Z" stroke="#1F2933"/>
</svg>
