<svg xmlns="http://www.w3.org/2000/svg" width="67" height="67" viewBox="0 0 67 67">
    <g fill="none" fill-rule="evenodd">
        <path fill="#FFF" fill-rule="nonzero" d="M0 0h67v67H0z" opacity=".01"/>
        <path fill="#DFE7EB" fill-rule="nonzero" stroke="#A3B0BF" stroke-linecap="round" stroke-linejoin="round" stroke-width="1.5" d="M27.48 53.93h12.04v6.88H27.48z"/>
        <path stroke="#A3B0BF" stroke-linecap="round" stroke-linejoin="round" stroke-width="1.5" d="M20.26 60.81h26.48"/>
        <path fill="#DFE7EB" fill-rule="nonzero" stroke="#A3B0BF" stroke-linecap="round" stroke-linejoin="round" stroke-width="1.5" d="M1 49.12a4.78 4.78 0 0 0 4.81 4.81h55.38A5.18 5.18 0 0 0 66 49.12v-6H1v6z"/>
        <path fill="#FFF" fill-rule="nonzero" stroke="#A3B0BF" stroke-linecap="round" stroke-linejoin="round" stroke-width="1.5" d="M61.19 6.19H5.81A5.18 5.18 0 0 0 1 11v32.1h65V11a5.18 5.18 0 0 0-4.81-4.81z"/>
        <path fill="#DFE7EB" fill-rule="nonzero" stroke="#A3B0BF" stroke-linecap="round" stroke-linejoin="round" stroke-width="1.5" d="M11.7 26.07h43.6"/>
        <circle cx="12.05" cy="26.07" r="6.67" fill="#FFF" fill-rule="nonzero" stroke="#FFA800" stroke-linecap="round" stroke-linejoin="round" stroke-width="1.5"/>
        <path fill="#FFF" fill-rule="nonzero" stroke="#FFA800" stroke-linecap="round" stroke-linejoin="round" stroke-width="1.5" d="M14.22 24.6l-2.94 2.95-1.41-1.41"/>
        <circle cx="33.5" cy="26.07" r="6.67" fill="#FFF" fill-rule="nonzero" stroke="#FFA800" stroke-linecap="round" stroke-linejoin="round" stroke-width="1.5"/>
        <path fill="#FFF" fill-rule="nonzero" stroke="#FFA800" stroke-linecap="round" stroke-linejoin="round" stroke-width="1.5" d="M35.67 24.6l-2.94 2.95-1.4-1.41"/>
        <circle cx="54.95" cy="26.07" r="6.67" fill="#FFF" fill-rule="nonzero" stroke="#FFA800" stroke-linecap="round" stroke-linejoin="round" stroke-width="1.5"/>
        <g fill="#FFEDCC" fill-rule="nonzero" stroke="#FFA800" stroke-linecap="round" stroke-linejoin="round" stroke-width="1.5" transform="translate(50 22)">
            <circle cx="4.95" cy="2.74" r="2.67"/>
            <path d="M5 10.74a6.65 6.65 0 0 0 4.71-2 5 5 0 0 0-9.43 0 6.65 6.65 0 0 0 4.72 2z"/>
        </g>
    </g>
</svg>
