<svg xmlns="http://www.w3.org/2000/svg" width="67" height="67" viewBox="0 0 67 67">
    <g fill="none" fill-rule="evenodd">
        <path fill="#FFF" fill-rule="nonzero" d="M0 0h67v67H0z" opacity=".01"/>
        <path fill="#FFF" fill-rule="nonzero" stroke="#A3B0BF" stroke-linecap="round" stroke-linejoin="round" stroke-width="1.5" d="M1 16V9.77a4.13 4.13 0 0 1 4.14-4.13h56.72A4.13 4.13 0 0 1 66 9.77v47.46a4.05 4.05 0 0 1-4.14 4.13H5.14A4.05 4.05 0 0 1 1 57.23V16z"/>
        <path fill="#DFE7EB" d="M66 16H1V9.77a4.13 4.13 0 0 1 4.14-4.13h56.72A4.13 4.13 0 0 1 66 9.77V16z"/>
        <path stroke="#A3B0BF" stroke-width="1.5" d="M66 16H1V9.77a4.13 4.13 0 0 1 4.14-4.13h56.72A4.13 4.13 0 0 1 66 9.77V16z"/>
        <path fill="#FFF" fill-rule="nonzero" d="M8.25 10.8a1.55 1.55 0 0 1-1.55 1.55 1.55 1.55 0 1 1-.01-3.1 1.55 1.55 0 0 1 1.56 1.55zM14.45 10.8a1.55 1.55 0 1 1-3.1 0 1.55 1.55 0 0 1 3.1 0zM20.66 10.8a1.55 1.55 0 1 1-3.1 0 1.55 1.55 0 0 1 3.1 0z"/>
        <rect width="5.55" height="1.38" x="5.86" y="20.07" fill="#DFE7EB" fill-rule="nonzero" rx=".69"/>
        <rect width="3.24" height="1.38" x="48.89" y="20.07" fill="#DFE7EB" fill-rule="nonzero" rx=".69"/>
        <rect width="3.24" height="1.38" x="53.4" y="20.07" fill="#DFE7EB" fill-rule="nonzero" rx=".69"/>
        <rect width="3.24" height="1.38" x="57.9" y="20.07" fill="#DFE7EB" fill-rule="nonzero" rx=".69"/>
        <g fill="#FFEDCC" fill-rule="nonzero" stroke="#FFA800" stroke-linecap="round" stroke-linejoin="round" stroke-width="1.5">
            <path d="M31.27 37.64v16.1a1 1 0 0 0 1.62.79l2.84-2.22L39 58.15a1 1 0 0 0 1.32.41L43 57.23a1 1 0 0 0 .43-1.38l-3.21-5.77h3.53a1 1 0 0 0 .71-1.71L33 36.93a1 1 0 0 0-1.73.71zM31.27 24.83v4.45M20.88 35.22h4.45M41.67 35.22h-4.46M23.92 27.87l3.15 3.15M23.92 42.57l3.15-3.15M38.62 27.87l-3.15 3.15"/>
        </g>
    </g>
</svg>
